<svg xmlns:dc="http://purl.org/dc/elements/1.1/" xmlns:cc="http://creativecommons.org/ns#" xmlns:rdf="http://www.w3.org/1999/02/22-rdf-syntax-ns#" xmlns:svg="http://www.w3.org/2000/svg" xmlns="http://www.w3.org/2000/svg" xmlns:sodipodi="http://sodipodi.sourceforge.net/DTD/sodipodi-0.dtd" xmlns:inkscape="http://www.inkscape.org/namespaces/inkscape" width="439.65894mm" height="232.04039mm" viewBox="0 0 439.65894 232.04039" version="1.1" id="svg9633" inkscape:version="0.92.3 (2405546, 2018-03-11)" sodipodi:docname="nursery-3-pathified.svg">
  <defs id="defs9627">
    <style type="text/css" id="style6673">@import url('https://fonts.googleapis.com/css?family=Montserrat');</style>
    <style type="text/css" id="style6675">
        @font-face {
            font-family: "DejaVu Sans Mono";
            src: url("deja-vu-sans-mono.woff");
        }
    </style>
    <marker inkscape:stockid="Arrow1Mend" orient="auto" refY="0" refX="0" id="Arrow1Mend-6-1-0-1-1-6-6-9" style="overflow:visible" inkscape:isstock="true">
      <path inkscape:connector-curvature="0" id="path938-2-2-9-9-0-06-8-3" d="M 0,0 5,-5 -12.5,0 5,5 Z" style="fill:#4e8f88;fill-opacity:1;fill-rule:evenodd;stroke:#4e8f88;stroke-width:1.00000003pt;stroke-opacity:1" transform="matrix(-0.4,0,0,-0.4,-4,0)"/>
    </marker>
    <marker inkscape:isstock="true" style="overflow:visible" id="marker4985" refX="0" refY="0" orient="auto" inkscape:stockid="Arrow1Mend">
      <path transform="matrix(-0.4,0,0,-0.4,-4,0)" style="fill:#b35f00;fill-opacity:1;fill-rule:evenodd;stroke:#b35f00;stroke-width:1.00000003pt;stroke-opacity:1" d="M 0,0 5,-5 -12.5,0 5,5 Z" id="path4983" inkscape:connector-curvature="0"/>
    </marker>
    <marker inkscape:stockid="Arrow1Mend" orient="auto" refY="0" refX="0" id="Arrow1Mend-6-1-0-1-1-3-0-5-2-12" style="overflow:visible" inkscape:isstock="true">
      <path inkscape:connector-curvature="0" id="path938-2-2-9-9-0-2-6-9-7-8" d="M 0,0 5,-5 -12.5,0 5,5 Z" style="fill:#ef0685;fill-opacity:1;fill-rule:evenodd;stroke:#ef0685;stroke-width:1.00000003pt;stroke-opacity:1" transform="matrix(-0.4,0,0,-0.4,-4,0)"/>
    </marker>
    <marker inkscape:stockid="Arrow1Mend" orient="auto" refY="0" refX="0" id="marker6526" style="overflow:visible" inkscape:isstock="true">
      <path inkscape:connector-curvature="0" id="path6524" d="M 0,0 5,-5 -12.5,0 5,5 Z" style="fill:#831bb7;fill-opacity:1;fill-rule:evenodd;stroke:#831bb7;stroke-width:1.00000003pt;stroke-opacity:1" transform="matrix(-0.4,0,0,-0.4,-4,0)"/>
    </marker>
    <marker inkscape:stockid="Arrow1Mend" orient="auto" refY="0" refX="0" id="Arrow1Mend-6-1-0-1-1-3-0-5-7-3-4" style="overflow:visible" inkscape:isstock="true">
      <path inkscape:connector-curvature="0" id="path938-2-2-9-9-0-2-6-9-1-5-8" d="M 0,0 5,-5 -12.5,0 5,5 Z" style="fill:#ef0685;fill-opacity:1;fill-rule:evenodd;stroke:#ef0685;stroke-width:1.00000003pt;stroke-opacity:1" transform="matrix(-0.4,0,0,-0.4,-4,0)"/>
    </marker>
    <marker inkscape:stockid="Arrow1Mend" orient="auto" refY="0" refX="0" id="marker7283" style="overflow:visible" inkscape:isstock="true">
      <path inkscape:connector-curvature="0" id="path7281" d="M 0,0 5,-5 -12.5,0 5,5 Z" style="fill:#831bb7;fill-opacity:1;fill-rule:evenodd;stroke:#831bb7;stroke-width:1.00000003pt;stroke-opacity:1" transform="matrix(-0.4,0,0,-0.4,-4,0)"/>
    </marker>
    <marker inkscape:stockid="Arrow1Mend" orient="auto" refY="0" refX="0" id="Arrow1Mend-6-1-0-1-1-6-6" style="overflow:visible" inkscape:isstock="true">
      <path inkscape:connector-curvature="0" id="path938-2-2-9-9-0-06-8" d="M 0,0 5,-5 -12.5,0 5,5 Z" style="fill:#4e8f88;fill-opacity:1;fill-rule:evenodd;stroke:#4e8f88;stroke-width:1.00000003pt;stroke-opacity:1" transform="matrix(-0.4,0,0,-0.4,-4,0)"/>
    </marker>
    <marker inkscape:isstock="true" style="overflow:visible" id="marker5730" refX="0" refY="0" orient="auto" inkscape:stockid="Arrow1Mend">
      <path transform="matrix(-0.4,0,0,-0.4,-4,0)" style="fill:#b35f00;fill-opacity:1;fill-rule:evenodd;stroke:#b35f00;stroke-width:1.00000003pt;stroke-opacity:1" d="M 0,0 5,-5 -12.5,0 5,5 Z" id="path5728" inkscape:connector-curvature="0"/>
    </marker>
  </defs>
  <sodipodi:namedview id="base" pagecolor="#ffffff" bordercolor="#666666" borderopacity="1.0" inkscape:pageopacity="0.0" inkscape:pageshadow="2" inkscape:zoom="0.98994949" inkscape:cx="530.09371" inkscape:cy="566.52809" inkscape:document-units="mm" inkscape:current-layer="layer1" showgrid="false" fit-margin-top="0" fit-margin-left="0" fit-margin-right="0" fit-margin-bottom="0" inkscape:window-width="1920" inkscape:window-height="1009" inkscape:window-x="0" inkscape:window-y="34" inkscape:window-maximized="1"/>
  <metadata id="metadata9630">
    <rdf:RDF>
      <cc:Work rdf:about="">
        <dc:format>image/svg+xml</dc:format>
        <dc:type rdf:resource="http://purl.org/dc/dcmitype/StillImage"/>
        <dc:title/>
      </cc:Work>
    </rdf:RDF>
  </metadata>
  <g inkscape:label="Layer 1" inkscape:groupmode="layer" id="layer1" transform="translate(3.6270869,-159.81314)">
    <rect style="color:#000000;clip-rule:nonzero;display:inline;overflow:visible;visibility:visible;opacity:1;isolation:auto;mix-blend-mode:normal;color-interpolation:sRGB;color-interpolation-filters:linearRGB;solid-color:#000000;solid-opacity:1;vector-effect:none;fill:#fdfbef;fill-opacity:1;fill-rule:nonzero;stroke:#5f645d;stroke-width:4;stroke-linecap:butt;stroke-linejoin:miter;stroke-miterlimit:4;stroke-dasharray:none;stroke-dashoffset:0;stroke-opacity:1;marker:none;marker-start:none;marker-mid:none;marker-end:none;color-rendering:auto;image-rendering:auto;shape-rendering:auto;text-rendering:auto;enable-background:accumulate" id="rect4668-1-4-4-1" width="435.65894" height="149.09866" x="-1.6270869" y="208.28705"/>
    <rect style="color:#000000;clip-rule:nonzero;display:inline;overflow:visible;visibility:visible;opacity:1;isolation:auto;mix-blend-mode:normal;color-interpolation:sRGB;color-interpolation-filters:linearRGB;solid-color:#000000;solid-opacity:1;vector-effect:none;fill:#cbb219;fill-opacity:0.08870969;fill-rule:nonzero;stroke:#4c504a;stroke-width:1.16499996;stroke-linecap:butt;stroke-linejoin:miter;stroke-miterlimit:4;stroke-dasharray:none;stroke-dashoffset:0;stroke-opacity:1;marker:none;marker-start:none;marker-mid:none;marker-end:none;color-rendering:auto;image-rendering:auto;shape-rendering:auto;text-rendering:auto;enable-background:accumulate" id="rect4758-87-5-3-0" width="385.86215" height="101.34191" x="31.671131" y="238.60356"/>
    <path style="display:inline;opacity:1;vector-effect:none;fill:none;fill-opacity:1;fill-rule:evenodd;stroke:#b35f00;stroke-width:2.76500058;stroke-linecap:butt;stroke-linejoin:miter;stroke-miterlimit:4;stroke-dasharray:none;stroke-dashoffset:0;stroke-opacity:1;marker-end:url(#marker5730)" d="m 38.617373,276.04941 c -16.151201,8.73906 -15.376001,25.16768 -19.127701,57.1911" id="path888-9-7-3-4-6-0-1-0-1-5" inkscape:connector-curvature="0" sodipodi:nodetypes="cc"/>
    <rect style="color:#000000;clip-rule:nonzero;display:inline;overflow:visible;visibility:visible;opacity:1;isolation:auto;mix-blend-mode:normal;color-interpolation:sRGB;color-interpolation-filters:linearRGB;solid-color:#000000;solid-opacity:1;vector-effect:none;fill:#b35f00;fill-opacity:0.14509804;fill-rule:nonzero;stroke:#b35f00;stroke-width:1.16499996;stroke-linecap:butt;stroke-linejoin:miter;stroke-miterlimit:4;stroke-dasharray:none;stroke-dashoffset:0;stroke-opacity:1;marker:none;marker-start:none;marker-mid:none;marker-end:none;color-rendering:auto;image-rendering:auto;shape-rendering:auto;text-rendering:auto;enable-background:accumulate" id="rect4758-88-6-0" width="184.11221" height="36.257484" x="35.853382" y="242.06895"/>
    <g aria-label="async with trio.open_nursery() as nursery:        nursery.start_soon(myfunc)       nursery.start_soon(anotherfunc)      " style="font-style:normal;font-variant:normal;font-weight:normal;font-stretch:normal;font-size:9.52499962px;line-height:125%;font-family:'DejaVu Sans Mono';-inkscape-font-specification:'DejaVu Sans Mono';text-align:start;letter-spacing:0px;word-spacing:0px;writing-mode:lr-tb;text-anchor:start;fill:#000000;fill-opacity:1;stroke:none;stroke-width:0.26458332px;stroke-linecap:butt;stroke-linejoin:miter;stroke-opacity:1" id="text1290-2-8-6">
      <path d="m 9.3409308,219.75573 q -0.7627441,0 -1.0650512,0.19533 -0.3023071,0.19534 -0.3023071,0.66973 0,0.35347 0.2092895,0.56275 0.2092895,0.20929 0.5674072,0.20929 0.5395019,0 0.8371582,-0.40462 0.2976562,-0.40928 0.2976562,-1.13947 v -0.093 z m 1.8975582,-0.52555 v 2.97191 H 9.8850836 v -0.58136 q -0.2464966,0.34416 -0.6325195,0.5302 -0.3860229,0.18603 -0.8511108,0.18603 -0.8883178,0 -1.3859619,-0.46974 -0.4929931,-0.46973 -0.4929931,-1.31154 0,-0.91158 0.5906616,-1.34411 0.5906616,-0.43718 1.8277953,-0.43718 h 0.9441284 v -0.22789 q 0,-0.33022 -0.2418457,-0.49765 -0.2371948,-0.17208 -0.7022827,-0.17208 -0.4883422,0 -0.9487792,0.12557 -0.4557861,0.12093 -0.9534302,0.39068 v -1.16272 q 0.4511353,-0.18604 0.9162231,-0.2744 0.4650879,-0.0884 0.9859863,-0.0884 1.2696898,0 1.7812868,0.51625 0.516247,0.51624 0.516247,1.8464 z" style="font-style:normal;font-variant:normal;font-weight:bold;font-stretch:normal;font-size:9.52499962px;line-height:200%;font-family:'DejaVu Sans Mono';-inkscape-font-specification:'DejaVu Sans Mono';font-variant-ligatures:normal;font-variant-position:normal;font-variant-caps:normal;font-variant-numeric:normal;font-variant-alternates:normal;font-feature-settings:normal;text-indent:0;text-align:start;text-decoration:none;text-decoration-line:none;text-decoration-style:solid;text-decoration-color:#000000;letter-spacing:0px;word-spacing:0px;text-transform:none;writing-mode:lr-tb;direction:ltr;text-orientation:mixed;dominant-baseline:auto;baseline-shift:baseline;text-anchor:start;white-space:normal;shape-padding:0;opacity:1;vector-effect:none;fill:#008000;fill-opacity:1;stroke:none;stroke-width:0.26458332px;stroke-linecap:butt;stroke-linejoin:miter;stroke-miterlimit:4;stroke-dasharray:none;stroke-dashoffset:0;stroke-opacity:1" id="path2719"/>
      <path d="m 16.424219,217.15588 v 1.19063 q -0.376721,-0.24185 -0.785998,-0.36277 -0.404627,-0.12557 -0.813904,-0.12557 -0.455786,0 -0.68833,0.13487 -0.232544,0.13023 -0.232544,0.39068 0,0.37207 0.995288,0.60461 l 0.05116,0.014 0.390673,0.093 q 0.744141,0.17673 1.088306,0.57206 0.348816,0.39067 0.348816,1.0604 0,0.8046 -0.5302,1.20923 -0.525549,0.39997 -1.58595,0.39997 -0.469739,0 -0.962732,-0.0837 -0.492993,-0.0791 -0.999939,-0.24185 v -1.19062 q 0.451136,0.25579 0.916223,0.39067 0.469739,0.13488 0.906922,0.13488 0.47904,0 0.725537,-0.13953 0.246496,-0.13953 0.246496,-0.40463 0,-0.26045 -0.176733,-0.39997 -0.172082,-0.13953 -0.827856,-0.29766 l -0.376721,-0.0837 q -0.781348,-0.17674 -1.139466,-0.55346 -0.358117,-0.37672 -0.358117,-1.00924 0,-0.75344 0.544152,-1.17202 0.544153,-0.41858 1.530139,-0.41858 0.441834,0 0.879017,0.0744 0.441833,0.0698 0.855761,0.21394 z" style="font-style:normal;font-variant:normal;font-weight:bold;font-stretch:normal;font-size:9.52499962px;line-height:200%;font-family:'DejaVu Sans Mono';-inkscape-font-specification:'DejaVu Sans Mono';font-variant-ligatures:normal;font-variant-position:normal;font-variant-caps:normal;font-variant-numeric:normal;font-variant-alternates:normal;font-feature-settings:normal;text-indent:0;text-align:start;text-decoration:none;text-decoration-line:none;text-decoration-style:solid;text-decoration-color:#000000;letter-spacing:0px;word-spacing:0px;text-transform:none;writing-mode:lr-tb;direction:ltr;text-orientation:mixed;dominant-baseline:auto;baseline-shift:baseline;text-anchor:start;white-space:normal;shape-padding:0;opacity:1;vector-effect:none;fill:#008000;fill-opacity:1;stroke:none;stroke-width:0.26458332px;stroke-linecap:butt;stroke-linejoin:miter;stroke-miterlimit:4;stroke-dasharray:none;stroke-dashoffset:0;stroke-opacity:1" id="path2721"/>
      <path d="m 20.851856,222.76484 q -0.274402,0.73484 -0.660425,1.06971 -0.381372,0.33951 -0.930176,0.33951 h -1.125512 v -1.03715 h 0.553454 q 0.418579,0 0.613916,-0.14417 0.195337,-0.13953 0.395325,-0.65578 l 0.102319,-0.27905 -1.981274,-5.06481 h 1.432471 l 1.190625,3.38119 1.139465,-3.38119 h 1.432471 z" style="font-style:normal;font-variant:normal;font-weight:bold;font-stretch:normal;font-size:9.52499962px;line-height:200%;font-family:'DejaVu Sans Mono';-inkscape-font-specification:'DejaVu Sans Mono';font-variant-ligatures:normal;font-variant-position:normal;font-variant-caps:normal;font-variant-numeric:normal;font-variant-alternates:normal;font-feature-settings:normal;text-indent:0;text-align:start;text-decoration:none;text-decoration-line:none;text-decoration-style:solid;text-decoration-color:#000000;letter-spacing:0px;word-spacing:0px;text-transform:none;writing-mode:lr-tb;direction:ltr;text-orientation:mixed;dominant-baseline:auto;baseline-shift:baseline;text-anchor:start;white-space:normal;shape-padding:0;opacity:1;vector-effect:none;fill:#008000;fill-opacity:1;stroke:none;stroke-width:0.26458332px;stroke-linecap:butt;stroke-linejoin:miter;stroke-miterlimit:4;stroke-dasharray:none;stroke-dashoffset:0;stroke-opacity:1" id="path2723"/>
      <path d="m 28.256054,218.8209 v 3.38119 h -1.353405 v -3.1719 q 0,-0.56741 -0.162781,-0.80925 -0.15813,-0.2465 -0.520898,-0.2465 -0.36742,0 -0.58136,0.33021 -0.20929,0.33021 -0.20929,0.91622 v 2.98122 h -1.353405 v -5.20899 h 1.353405 v 0.78135 q 0.144177,-0.43253 0.492993,-0.66973 0.348816,-0.23719 0.841809,-0.23719 0.73949,0 1.116211,0.49299 0.376721,0.48834 0.376721,1.46038 z" style="font-style:normal;font-variant:normal;font-weight:bold;font-stretch:normal;font-size:9.52499962px;line-height:200%;font-family:'DejaVu Sans Mono';-inkscape-font-specification:'DejaVu Sans Mono';font-variant-ligatures:normal;font-variant-position:normal;font-variant-caps:normal;font-variant-numeric:normal;font-variant-alternates:normal;font-feature-settings:normal;text-indent:0;text-align:start;text-decoration:none;text-decoration-line:none;text-decoration-style:solid;text-decoration-color:#000000;letter-spacing:0px;word-spacing:0px;text-transform:none;writing-mode:lr-tb;direction:ltr;text-orientation:mixed;dominant-baseline:auto;baseline-shift:baseline;text-anchor:start;white-space:normal;shape-padding:0;opacity:1;vector-effect:none;fill:#008000;fill-opacity:1;stroke:none;stroke-width:0.26458332px;stroke-linecap:butt;stroke-linejoin:miter;stroke-miterlimit:4;stroke-dasharray:none;stroke-dashoffset:0;stroke-opacity:1" id="path2725"/>
      <path d="m 33.939429,221.93699 q -0.344165,0.19999 -0.73949,0.29765 -0.395325,0.10232 -0.851111,0.10232 -1.204577,0 -1.883606,-0.72553 -0.679028,-0.72554 -0.679028,-2.00918 0,-1.2883 0.683679,-2.01383 0.68368,-0.73019 1.888257,-0.73019 0.418579,0 0.804602,0.0977 0.390674,0.0977 0.776697,0.3023 v 1.24644 q -0.297656,-0.2558 -0.655774,-0.39067 -0.353467,-0.13953 -0.734839,-0.13953 -0.665075,0 -1.023193,0.42323 -0.358118,0.42323 -0.358118,1.20458 0,0.78134 0.358118,1.19992 0.358118,0.41858 1.023193,0.41858 0.395325,0 0.73949,-0.13022 0.344165,-0.13488 0.651123,-0.40463 z" style="font-style:normal;font-variant:normal;font-weight:bold;font-stretch:normal;font-size:9.52499962px;line-height:200%;font-family:'DejaVu Sans Mono';-inkscape-font-specification:'DejaVu Sans Mono';font-variant-ligatures:normal;font-variant-position:normal;font-variant-caps:normal;font-variant-numeric:normal;font-variant-alternates:normal;font-feature-settings:normal;text-indent:0;text-align:start;text-decoration:none;text-decoration-line:none;text-decoration-style:solid;text-decoration-color:#000000;letter-spacing:0px;word-spacing:0px;text-transform:none;writing-mode:lr-tb;direction:ltr;text-orientation:mixed;dominant-baseline:auto;baseline-shift:baseline;text-anchor:start;white-space:normal;shape-padding:0;opacity:1;vector-effect:none;fill:#008000;fill-opacity:1;stroke:none;stroke-width:0.26458332px;stroke-linecap:butt;stroke-linejoin:miter;stroke-miterlimit:4;stroke-dasharray:none;stroke-dashoffset:0;stroke-opacity:1" id="path2727"/>
      <path d="m 40.464611,216.9931 h 1.134814 l 0.618567,3.99046 0.562757,-2.62775 h 1.102258 l 0.553454,2.62775 0.627869,-3.99046 h 1.134815 l -0.944129,5.20899 h -1.292944 l -0.63252,-2.70681 -0.627868,2.70681 h -1.292945 z" style="font-style:normal;font-variant:normal;font-weight:bold;font-stretch:normal;font-size:9.52499962px;line-height:200%;font-family:'DejaVu Sans Mono';-inkscape-font-specification:'DejaVu Sans Mono';font-variant-ligatures:normal;font-variant-position:normal;font-variant-caps:normal;font-variant-numeric:normal;font-variant-alternates:normal;font-feature-settings:normal;text-indent:0;text-align:start;text-decoration:none;text-decoration-line:none;text-decoration-style:solid;text-decoration-color:#000000;letter-spacing:0px;word-spacing:0px;text-transform:none;writing-mode:lr-tb;direction:ltr;text-orientation:mixed;dominant-baseline:auto;baseline-shift:baseline;text-anchor:start;white-space:normal;shape-padding:0;opacity:1;vector-effect:none;fill:#008000;fill-opacity:1;stroke:none;stroke-width:0.26458332px;stroke-linecap:butt;stroke-linejoin:miter;stroke-miterlimit:4;stroke-dasharray:none;stroke-dashoffset:0;stroke-opacity:1" id="path2729"/>
      <path d="m 47.22234,216.9931 h 2.69751 v 4.16254 h 1.69292 v 1.04645 h -4.753198 v -1.04645 h 1.697571 v -3.11609 H 47.22234 Z m 1.334803,-2.53473 h 1.362707 v 1.5906 h -1.362707 z" style="font-style:normal;font-variant:normal;font-weight:bold;font-stretch:normal;font-size:9.52499962px;line-height:200%;font-family:'DejaVu Sans Mono';-inkscape-font-specification:'DejaVu Sans Mono';font-variant-ligatures:normal;font-variant-position:normal;font-variant-caps:normal;font-variant-numeric:normal;font-variant-alternates:normal;font-feature-settings:normal;text-indent:0;text-align:start;text-decoration:none;text-decoration-line:none;text-decoration-style:solid;text-decoration-color:#000000;letter-spacing:0px;word-spacing:0px;text-transform:none;writing-mode:lr-tb;direction:ltr;text-orientation:mixed;dominant-baseline:auto;baseline-shift:baseline;text-anchor:start;white-space:normal;shape-padding:0;opacity:1;vector-effect:none;fill:#008000;fill-opacity:1;stroke:none;stroke-width:0.26458332px;stroke-linecap:butt;stroke-linejoin:miter;stroke-miterlimit:4;stroke-dasharray:none;stroke-dashoffset:0;stroke-opacity:1" id="path2731"/>
      <path d="m 55.133484,215.51412 v 1.47898 h 1.781286 v 1.04645 h -1.781286 v 2.46497 q 0,0.34881 0.167431,0.50229 0.172083,0.14883 0.567408,0.14883 h 1.046447 v 1.04645 h -1.144116 q -1.172021,0 -1.58595,-0.37207 -0.413928,-0.37672 -0.413928,-1.39062 v -2.39985 h -1.330151 v -1.04645 h 1.330151 v -1.47898 z" style="font-style:normal;font-variant:normal;font-weight:bold;font-stretch:normal;font-size:9.52499962px;line-height:200%;font-family:'DejaVu Sans Mono';-inkscape-font-specification:'DejaVu Sans Mono';font-variant-ligatures:normal;font-variant-position:normal;font-variant-caps:normal;font-variant-numeric:normal;font-variant-alternates:normal;font-feature-settings:normal;text-indent:0;text-align:start;text-decoration:none;text-decoration-line:none;text-decoration-style:solid;text-decoration-color:#000000;letter-spacing:0px;word-spacing:0px;text-transform:none;writing-mode:lr-tb;direction:ltr;text-orientation:mixed;dominant-baseline:auto;baseline-shift:baseline;text-anchor:start;white-space:normal;shape-padding:0;opacity:1;vector-effect:none;fill:#008000;fill-opacity:1;stroke:none;stroke-width:0.26458332px;stroke-linecap:butt;stroke-linejoin:miter;stroke-miterlimit:4;stroke-dasharray:none;stroke-dashoffset:0;stroke-opacity:1" id="path2733"/>
      <path d="m 62.63535,218.8209 v 3.38119 h -1.353406 v -3.1719 q 0,-0.56276 -0.162781,-0.8046 -0.15813,-0.24185 -0.520898,-0.24185 -0.37207,0 -0.58136,0.33021 -0.209289,0.32556 -0.209289,0.90692 v 2.98122 H 58.45421 v -7.23677 h 1.353406 v 2.80913 q 0.144177,-0.43253 0.492993,-0.66973 0.348816,-0.23719 0.841809,-0.23719 0.739489,0 1.116211,0.49299 0.376721,0.48834 0.376721,1.46038 z" style="font-style:normal;font-variant:normal;font-weight:bold;font-stretch:normal;font-size:9.52499962px;line-height:200%;font-family:'DejaVu Sans Mono';-inkscape-font-specification:'DejaVu Sans Mono';font-variant-ligatures:normal;font-variant-position:normal;font-variant-caps:normal;font-variant-numeric:normal;font-variant-alternates:normal;font-feature-settings:normal;text-indent:0;text-align:start;text-decoration:none;text-decoration-line:none;text-decoration-style:solid;text-decoration-color:#000000;letter-spacing:0px;word-spacing:0px;text-transform:none;writing-mode:lr-tb;direction:ltr;text-orientation:mixed;dominant-baseline:auto;baseline-shift:baseline;text-anchor:start;white-space:normal;shape-padding:0;opacity:1;vector-effect:none;fill:#008000;fill-opacity:1;stroke:none;stroke-width:0.26458332px;stroke-linecap:butt;stroke-linejoin:miter;stroke-miterlimit:4;stroke-dasharray:none;stroke-dashoffset:0;stroke-opacity:1" id="path2735"/>
      <path d="m 71.969665,215.51412 v 1.47898 h 1.944067 v 0.66508 h -1.944067 v 2.82773 q 0,0.57671 0.218591,0.80461 0.218591,0.22789 0.762744,0.22789 h 0.962732 v 0.68368 h -1.046448 q -0.962732,0 -1.358056,-0.38603 -0.395325,-0.38602 -0.395325,-1.33015 v -2.82773 H 69.72329 v -0.66508 h 1.390613 v -1.47898 z" style="font-style:normal;font-variant:normal;font-weight:normal;font-stretch:normal;font-size:9.52499962px;line-height:200%;font-family:'DejaVu Sans Mono';-inkscape-font-specification:'DejaVu Sans Mono';text-align:start;text-anchor:start;stroke-width:0.26458332px" id="path2737"/>
      <path d="m 80.215671,218.06746 q -0.274402,-0.21394 -0.558105,-0.31161 -0.283704,-0.0977 -0.623218,-0.0977 -0.799951,0 -1.223181,0.50229 -0.42323,0.5023 -0.42323,1.45108 v 2.59054 h -0.860413 v -5.20899 h 0.860413 v 1.01855 q 0.21394,-0.55346 0.655774,-0.84646 0.446484,-0.29766 1.055749,-0.29766 0.31626,0 0.590662,0.0791 0.274402,0.0791 0.525549,0.2465 z" style="font-style:normal;font-variant:normal;font-weight:normal;font-stretch:normal;font-size:9.52499962px;line-height:200%;font-family:'DejaVu Sans Mono';-inkscape-font-specification:'DejaVu Sans Mono';text-align:start;text-anchor:start;stroke-width:0.26458332px" id="path2739"/>
      <path d="m 81.764413,216.9931 h 2.190564 v 4.54391 h 1.69757 v 0.66508 h -4.250903 v -0.66508 h 1.697571 v -3.87883 h -1.334802 z m 1.334802,-2.02778 h 0.855762 v 1.08365 h -0.855762 z" style="font-style:normal;font-variant:normal;font-weight:normal;font-stretch:normal;font-size:9.52499962px;line-height:200%;font-family:'DejaVu Sans Mono';-inkscape-font-specification:'DejaVu Sans Mono';text-align:start;text-anchor:start;stroke-width:0.26458332px" id="path2741"/>
      <path d="m 89.168618,217.59307 q -0.651123,0 -0.985986,0.50694 -0.334864,0.50695 -0.334864,1.50224 0,0.99063 0.334864,1.50223 0.334863,0.50695 0.985986,0.50695 0.655774,0 0.990637,-0.50695 0.334863,-0.5116 0.334863,-1.50223 0,-0.99529 -0.334863,-1.50224 -0.334863,-0.50694 -0.990637,-0.50694 z m 0,-0.72554 q 1.083655,0 1.655713,0.70228 0.576709,0.70228 0.576709,2.03244 0,1.3348 -0.572058,2.03708 -0.572058,0.69763 -1.660364,0.69763 -1.083655,0 -1.655713,-0.69763 -0.572058,-0.70228 -0.572058,-2.03708 0,-1.33016 0.572058,-2.03244 0.572058,-0.70228 1.655713,-0.70228 z" style="font-style:normal;font-variant:normal;font-weight:normal;font-stretch:normal;font-size:9.52499962px;line-height:200%;font-family:'DejaVu Sans Mono';-inkscape-font-specification:'DejaVu Sans Mono';text-align:start;text-anchor:start;stroke-width:0.26458332px" id="path2743"/>
      <path d="m 94.307838,220.78357 h 1.172021 v 1.41852 h -1.172021 z" style="font-style:normal;font-variant:normal;font-weight:normal;font-stretch:normal;font-size:9.52499962px;line-height:200%;font-family:'DejaVu Sans Mono';-inkscape-font-specification:'DejaVu Sans Mono';text-align:start;text-anchor:start;stroke-width:0.26458332px" id="path2745"/>
      <path d="m 100.62838,217.59307 q -0.651123,0 -0.985986,0.50694 -0.334863,0.50695 -0.334863,1.50224 0,0.99063 0.334863,1.50223 0.334863,0.50695 0.985986,0.50695 0.65577,0 0.99064,-0.50695 0.33486,-0.5116 0.33486,-1.50223 0,-0.99529 -0.33486,-1.50224 -0.33487,-0.50694 -0.99064,-0.50694 z m 0,-0.72554 q 1.08366,0 1.65571,0.70228 0.57671,0.70228 0.57671,2.03244 0,1.3348 -0.57206,2.03708 -0.57205,0.69763 -1.66036,0.69763 -1.083654,0 -1.655712,-0.69763 -0.572058,-0.70228 -0.572058,-2.03708 0,-1.33016 0.572058,-2.03244 0.572058,-0.70228 1.655712,-0.70228 z" style="font-style:normal;font-variant:normal;font-weight:normal;font-stretch:normal;font-size:9.52499962px;line-height:200%;font-family:'DejaVu Sans Mono';-inkscape-font-specification:'DejaVu Sans Mono';text-align:start;text-anchor:start;stroke-width:0.26458332px" id="path2747"/>
      <path d="m 105.2374,221.54631 v 2.63705 h -0.86041 v -7.19026 h 0.86041 v 0.66508 q 0.21394,-0.38602 0.56741,-0.58601 0.35811,-0.20464 0.8232,-0.20464 0.94413,0 1.47898,0.73019 0.5395,0.73019 0.5395,2.02313 0,1.26969 -0.5395,1.99523 -0.5395,0.72088 -1.47898,0.72088 -0.47439,0 -0.8325,-0.19998 -0.35347,-0.20464 -0.55811,-0.59067 z m 2.51147,-1.94406 q 0,-0.99529 -0.31626,-1.50224 -0.3116,-0.50694 -0.93017,-0.50694 -0.62322,0 -0.94413,0.51159 -0.32091,0.50695 -0.32091,1.49759 0,0.98598 0.32091,1.49758 0.32091,0.5116 0.94413,0.5116 0.61857,0 0.93017,-0.50695 0.31626,-0.50695 0.31626,-1.50223 z" style="font-style:normal;font-variant:normal;font-weight:normal;font-stretch:normal;font-size:9.52499962px;line-height:200%;font-family:'DejaVu Sans Mono';-inkscape-font-specification:'DejaVu Sans Mono';text-align:start;text-anchor:start;stroke-width:0.26458332px" id="path2749"/>
      <path d="m 114.39498,219.38365 v 0.41858 h -3.70675 v 0.0279 q 0,0.85111 0.44183,1.3162 0.44649,0.46509 1.25574,0.46509 0.40928,0 0.85576,-0.13023 0.44649,-0.13022 0.95343,-0.39532 v 0.85111 q -0.48834,0.19999 -0.94413,0.29765 -0.45113,0.10232 -0.87436,0.10232 -1.21388,0 -1.89756,-0.72553 -0.68368,-0.73019 -0.68368,-2.00918 0,-1.24644 0.66973,-1.99058 0.66972,-0.74414 1.78593,-0.74414 0.99529,0 1.56735,0.67438 0.57671,0.67437 0.57671,1.84174 z m -0.85576,-0.25114 q -0.0186,-0.75344 -0.35812,-1.14412 -0.33486,-0.39532 -0.96738,-0.39532 -0.61857,0 -1.01855,0.40927 -0.39997,0.40928 -0.47439,1.13482 z" style="font-style:normal;font-variant:normal;font-weight:normal;font-stretch:normal;font-size:9.52499962px;line-height:200%;font-family:'DejaVu Sans Mono';-inkscape-font-specification:'DejaVu Sans Mono';text-align:start;text-anchor:start;stroke-width:0.26458332px" id="path2751"/>
      <path d="m 119.84116,218.97438 v 3.22771 h -0.86041 v -3.22771 q 0,-0.70229 -0.24649,-1.0325 -0.2465,-0.33021 -0.77205,-0.33021 -0.59996,0 -0.92553,0.42788 -0.32091,0.42323 -0.32091,1.21853 v 2.94401 h -0.85576 v -5.20899 h 0.85576 v 0.78135 q 0.2279,-0.44648 0.61857,-0.67438 0.39067,-0.23254 0.92553,-0.23254 0.7953,0 1.18597,0.52555 0.39532,0.5209 0.39532,1.5813 z" style="font-style:normal;font-variant:normal;font-weight:normal;font-stretch:normal;font-size:9.52499962px;line-height:200%;font-family:'DejaVu Sans Mono';-inkscape-font-specification:'DejaVu Sans Mono';text-align:start;text-anchor:start;stroke-width:0.26458332px" id="path2753"/>
      <path d="m 126.41751,224.07639 v 0.37207 h -5.73454 v -0.37207 z" style="font-style:normal;font-variant:normal;font-weight:normal;font-stretch:normal;font-size:9.52499962px;line-height:200%;font-family:'DejaVu Sans Mono';-inkscape-font-specification:'DejaVu Sans Mono';text-align:start;text-anchor:start;stroke-width:0.26458332px" id="path2755"/>
      <path d="m 131.30093,218.97438 v 3.22771 h -0.86042 v -3.22771 q 0,-0.70229 -0.24649,-1.0325 -0.2465,-0.33021 -0.77205,-0.33021 -0.59996,0 -0.92552,0.42788 -0.32091,0.42323 -0.32091,1.21853 v 2.94401 h -0.85577 v -5.20899 h 0.85577 v 0.78135 q 0.22789,-0.44648 0.61856,-0.67438 0.39068,-0.23254 0.92553,-0.23254 0.7953,0 1.18597,0.52555 0.39533,0.5209 0.39533,1.5813 z" style="font-style:normal;font-variant:normal;font-weight:normal;font-stretch:normal;font-size:9.52499962px;line-height:200%;font-family:'DejaVu Sans Mono';-inkscape-font-specification:'DejaVu Sans Mono';text-align:start;text-anchor:start;stroke-width:0.26458332px" id="path2757"/>
      <path d="m 133.04966,220.23011 v -3.22771 h 0.85576 v 3.22771 q 0,0.70229 0.24649,1.0325 0.25115,0.33021 0.77205,0.33021 0.60461,0 0.92552,-0.42323 0.32092,-0.42788 0.32092,-1.22318 v -2.94401 h 0.86041 v 5.19969 h -0.86041 v -0.78135 q -0.2279,0.45114 -0.62322,0.68368 -0.39068,0.23254 -0.91623,0.23254 -0.79995,0 -1.19062,-0.5209 -0.39067,-0.52554 -0.39067,-1.58595 z" style="font-style:normal;font-variant:normal;font-weight:normal;font-stretch:normal;font-size:9.52499962px;line-height:200%;font-family:'DejaVu Sans Mono';-inkscape-font-specification:'DejaVu Sans Mono';text-align:start;text-anchor:start;stroke-width:0.26458332px" id="path2759"/>
      <path d="m 143.24439,218.06746 q -0.2744,-0.21394 -0.55811,-0.31161 -0.2837,-0.0977 -0.62321,-0.0977 -0.79996,0 -1.22319,0.50229 -0.42323,0.5023 -0.42323,1.45108 v 2.59054 h -0.86041 v -5.20899 h 0.86041 v 1.01855 q 0.21394,-0.55346 0.65578,-0.84646 0.44648,-0.29766 1.05575,-0.29766 0.31626,0 0.59066,0.0791 0.2744,0.0791 0.52555,0.2465 z" style="font-style:normal;font-variant:normal;font-weight:normal;font-stretch:normal;font-size:9.52499962px;line-height:200%;font-family:'DejaVu Sans Mono';-inkscape-font-specification:'DejaVu Sans Mono';text-align:start;text-anchor:start;stroke-width:0.26458332px" id="path2761"/>
      <path d="m 148.1278,217.17449 v 0.83716 q -0.36742,-0.21394 -0.73949,-0.32091 -0.37207,-0.10698 -0.75809,-0.10698 -0.58136,0 -0.86972,0.19069 -0.2837,0.18604 -0.2837,0.57206 0,0.34881 0.21394,0.5209 0.21394,0.17208 1.06505,0.33486 l 0.34417,0.0651 q 0.63717,0.12093 0.96273,0.48369 0.33021,0.36277 0.33021,0.94413 0,0.77205 -0.5488,1.20923 -0.54881,0.43253 -1.52549,0.43253 -0.38602,0 -0.80925,-0.0837 -0.42323,-0.0791 -0.91623,-0.24185 v -0.88367 q 0.47904,0.2465 0.91623,0.37207 0.43718,0.12093 0.82785,0.12093 0.56741,0 0.87902,-0.2279 0.31161,-0.23254 0.31161,-0.64647 0,-0.59531 -1.13947,-0.8232 l -0.0372,-0.009 -0.32091,-0.0651 q -0.73949,-0.14417 -1.07901,-0.48369 -0.33951,-0.34416 -0.33951,-0.93483 0,-0.74879 0.50694,-1.15341 0.50695,-0.40928 1.44643,-0.40928 0.41858,0 0.8046,0.0791 0.38602,0.0744 0.75809,0.2279 z" style="font-style:normal;font-variant:normal;font-weight:normal;font-stretch:normal;font-size:9.52499962px;line-height:200%;font-family:'DejaVu Sans Mono';-inkscape-font-specification:'DejaVu Sans Mono';text-align:start;text-anchor:start;stroke-width:0.26458332px" id="path2763"/>
      <path d="m 154.50416,219.38365 v 0.41858 h -3.70675 v 0.0279 q 0,0.85111 0.44184,1.3162 0.44648,0.46509 1.25573,0.46509 0.40928,0 0.85577,-0.13023 0.44648,-0.13022 0.95343,-0.39532 v 0.85111 q -0.48835,0.19999 -0.94413,0.29765 -0.45114,0.10232 -0.87437,0.10232 -1.21388,0 -1.89756,-0.72553 -0.68368,-0.73019 -0.68368,-2.00918 0,-1.24644 0.66973,-1.99058 0.66973,-0.74414 1.78594,-0.74414 0.99529,0 1.56734,0.67438 0.57671,0.67437 0.57671,1.84174 z m -0.85576,-0.25114 q -0.0186,-0.75344 -0.35812,-1.14412 -0.33486,-0.39532 -0.96738,-0.39532 -0.61857,0 -1.01854,0.40927 -0.39998,0.40928 -0.47439,1.13482 z" style="font-style:normal;font-variant:normal;font-weight:normal;font-stretch:normal;font-size:9.52499962px;line-height:200%;font-family:'DejaVu Sans Mono';-inkscape-font-specification:'DejaVu Sans Mono';text-align:start;text-anchor:start;stroke-width:0.26458332px" id="path2765"/>
      <path d="m 160.43402,218.06746 q -0.2744,-0.21394 -0.5581,-0.31161 -0.2837,-0.0977 -0.62322,-0.0977 -0.79995,0 -1.22318,0.50229 -0.42323,0.5023 -0.42323,1.45108 v 2.59054 h -0.86041 v -5.20899 h 0.86041 v 1.01855 q 0.21394,-0.55346 0.65577,-0.84646 0.44649,-0.29766 1.05575,-0.29766 0.31626,0 0.59067,0.0791 0.2744,0.0791 0.52554,0.2465 z" style="font-style:normal;font-variant:normal;font-weight:normal;font-stretch:normal;font-size:9.52499962px;line-height:200%;font-family:'DejaVu Sans Mono';-inkscape-font-specification:'DejaVu Sans Mono';text-align:start;text-anchor:start;stroke-width:0.26458332px" id="path2767"/>
      <path d="m 164.7826,220.52777 q -0.21394,0.54415 -0.54415,1.43247 -0.46044,1.22783 -0.61857,1.49758 -0.21394,0.36277 -0.53485,0.54416 -0.32091,0.18138 -0.74879,0.18138 h -0.68833 v -0.71623 h 0.50695 q 0.37672,0 0.59066,-0.21859 0.21394,-0.2186 0.54415,-1.13017 l -2.01383,-5.12527 h 0.90692 l 1.54409,4.07417 1.52084,-4.07417 h 0.90692 z" style="font-style:normal;font-variant:normal;font-weight:normal;font-stretch:normal;font-size:9.52499962px;line-height:200%;font-family:'DejaVu Sans Mono';-inkscape-font-specification:'DejaVu Sans Mono';text-align:start;text-anchor:start;stroke-width:0.26458332px" id="path2769"/>
      <path d="m 170.63807,214.97462 q -0.61857,1.0604 -0.92553,2.11615 -0.30231,1.0511 -0.30231,2.1208 0,1.06505 0.30231,2.1208 0.30696,1.05575 0.92553,2.12545 h -0.74415 q -0.70228,-1.1069 -1.04644,-2.15335 -0.34417,-1.0511 -0.34417,-2.0929 0,-1.03714 0.34417,-2.08824 0.34416,-1.0511 1.04644,-2.14871 z" style="font-style:normal;font-variant:normal;font-weight:normal;font-stretch:normal;font-size:9.52499962px;line-height:200%;font-family:'DejaVu Sans Mono';-inkscape-font-specification:'DejaVu Sans Mono';text-align:start;text-anchor:start;stroke-width:0.26458332px" id="path2771"/>
      <path d="m 173.87042,214.97462 h 0.74414 q 0.70228,1.09761 1.04645,2.14871 0.34416,1.0511 0.34416,2.08824 0,1.04645 -0.34416,2.09755 -0.34417,1.0511 -1.04645,2.1487 h -0.74414 q 0.61856,-1.079 0.92087,-2.13475 0.30696,-1.05575 0.30696,-2.1115 0,-1.0604 -0.30696,-2.11615 -0.30231,-1.05575 -0.92087,-2.1208 z" style="font-style:normal;font-variant:normal;font-weight:normal;font-stretch:normal;font-size:9.52499962px;line-height:200%;font-family:'DejaVu Sans Mono';-inkscape-font-specification:'DejaVu Sans Mono';text-align:start;text-anchor:start;stroke-width:0.26458332px" id="path2773"/>
      <path d="m 186.96729,219.75573 q -0.76275,0 -1.06505,0.19533 -0.30231,0.19534 -0.30231,0.66973 0,0.35347 0.20929,0.56275 0.20929,0.20929 0.56741,0.20929 0.5395,0 0.83716,-0.40462 0.29765,-0.40928 0.29765,-1.13947 v -0.093 z m 1.89756,-0.52555 v 2.97191 h -1.35341 v -0.58136 q -0.24649,0.34416 -0.63252,0.5302 -0.38602,0.18603 -0.85111,0.18603 -0.88832,0 -1.38596,-0.46974 -0.49299,-0.46973 -0.49299,-1.31154 0,-0.91158 0.59066,-1.34411 0.59066,-0.43718 1.82779,-0.43718 h 0.94413 v -0.22789 q 0,-0.33022 -0.24184,-0.49765 -0.2372,-0.17208 -0.70229,-0.17208 -0.48834,0 -0.94878,0.12557 -0.45578,0.12093 -0.95343,0.39068 v -1.16272 q 0.45114,-0.18604 0.91623,-0.2744 0.46508,-0.0884 0.98598,-0.0884 1.26969,0 1.78129,0.51625 0.51625,0.51624 0.51625,1.8464 z" style="font-style:normal;font-variant:normal;font-weight:bold;font-stretch:normal;font-size:9.52499962px;line-height:200%;font-family:'DejaVu Sans Mono';-inkscape-font-specification:'DejaVu Sans Mono';font-variant-ligatures:normal;font-variant-position:normal;font-variant-caps:normal;font-variant-numeric:normal;font-variant-alternates:normal;font-feature-settings:normal;text-indent:0;text-align:start;text-decoration:none;text-decoration-line:none;text-decoration-style:solid;text-decoration-color:#000000;letter-spacing:0px;word-spacing:0px;text-transform:none;writing-mode:lr-tb;direction:ltr;text-orientation:mixed;dominant-baseline:auto;baseline-shift:baseline;text-anchor:start;white-space:normal;shape-padding:0;opacity:1;vector-effect:none;fill:#008000;fill-opacity:1;stroke:none;stroke-width:0.07000434px;stroke-linecap:butt;stroke-linejoin:miter;stroke-miterlimit:4;stroke-dasharray:none;stroke-dashoffset:0;stroke-opacity:1" id="path2775"/>
      <path d="m 194.05058,217.15588 v 1.19063 q -0.37672,-0.24185 -0.786,-0.36277 -0.40462,-0.12557 -0.8139,-0.12557 -0.45578,0 -0.68833,0.13487 -0.23254,0.13023 -0.23254,0.39068 0,0.37207 0.99529,0.60461 l 0.0511,0.014 0.39068,0.093 q 0.74414,0.17673 1.0883,0.57206 0.34882,0.39067 0.34882,1.0604 0,0.8046 -0.5302,1.20923 -0.52555,0.39997 -1.58595,0.39997 -0.46974,0 -0.96273,-0.0837 -0.49299,-0.0791 -0.99994,-0.24185 v -1.19062 q 0.45113,0.25579 0.91622,0.39067 0.46974,0.13488 0.90692,0.13488 0.47904,0 0.72554,-0.13953 0.2465,-0.13953 0.2465,-0.40463 0,-0.26045 -0.17674,-0.39997 -0.17208,-0.13953 -0.82785,-0.29766 l -0.37672,-0.0837 q -0.78135,-0.17674 -1.13947,-0.55346 -0.35812,-0.37672 -0.35812,-1.00924 0,-0.75344 0.54416,-1.17202 0.54415,-0.41858 1.53014,-0.41858 0.44183,0 0.87901,0.0744 0.44184,0.0698 0.85576,0.21394 z" style="font-style:normal;font-variant:normal;font-weight:bold;font-stretch:normal;font-size:9.52499962px;line-height:200%;font-family:'DejaVu Sans Mono';-inkscape-font-specification:'DejaVu Sans Mono';font-variant-ligatures:normal;font-variant-position:normal;font-variant-caps:normal;font-variant-numeric:normal;font-variant-alternates:normal;font-feature-settings:normal;text-indent:0;text-align:start;text-decoration:none;text-decoration-line:none;text-decoration-style:solid;text-decoration-color:#000000;letter-spacing:0px;word-spacing:0px;text-transform:none;writing-mode:lr-tb;direction:ltr;text-orientation:mixed;dominant-baseline:auto;baseline-shift:baseline;text-anchor:start;white-space:normal;shape-padding:0;opacity:1;vector-effect:none;fill:#008000;fill-opacity:1;stroke:none;stroke-width:0.07000434px;stroke-linecap:butt;stroke-linejoin:miter;stroke-miterlimit:4;stroke-dasharray:none;stroke-dashoffset:0;stroke-opacity:1" id="path2777"/>
      <path d="m 205.7894,218.97438 v 3.22771 h -0.86041 v -3.22771 q 0,-0.70229 -0.2465,-1.0325 -0.2465,-0.33021 -0.77205,-0.33021 -0.59996,0 -0.92552,0.42788 -0.32091,0.42323 -0.32091,1.21853 v 2.94401 h -0.85576 v -5.20899 h 0.85576 v 0.78135 q 0.22789,-0.44648 0.61857,-0.67438 0.39067,-0.23254 0.92552,-0.23254 0.7953,0 1.18597,0.52555 0.39533,0.5209 0.39533,1.5813 z" style="font-style:normal;font-variant:normal;font-weight:normal;font-stretch:normal;font-size:9.52499962px;line-height:200%;font-family:'DejaVu Sans Mono';-inkscape-font-specification:'DejaVu Sans Mono';text-align:start;text-anchor:start;stroke-width:0.26458332px" id="path2779"/>
      <path d="m 207.53814,220.23011 v -3.22771 h 0.85576 v 3.22771 q 0,0.70229 0.24649,1.0325 0.25115,0.33021 0.77205,0.33021 0.60461,0 0.92552,-0.42323 0.32092,-0.42788 0.32092,-1.22318 v -2.94401 h 0.86041 v 5.19969 h -0.86041 v -0.78135 q -0.2279,0.45114 -0.62322,0.68368 -0.39068,0.23254 -0.91623,0.23254 -0.79995,0 -1.19062,-0.5209 -0.39067,-0.52554 -0.39067,-1.58595 z" style="font-style:normal;font-variant:normal;font-weight:normal;font-stretch:normal;font-size:9.52499962px;line-height:200%;font-family:'DejaVu Sans Mono';-inkscape-font-specification:'DejaVu Sans Mono';text-align:start;text-anchor:start;stroke-width:0.26458332px" id="path2781"/>
      <path d="m 217.73285,218.06746 q -0.2744,-0.21394 -0.5581,-0.31161 -0.28371,-0.0977 -0.62322,-0.0977 -0.79995,0 -1.22318,0.50229 -0.42323,0.5023 -0.42323,1.45108 v 2.59054 h -0.86041 v -5.20899 h 0.86041 v 1.01855 q 0.21394,-0.55346 0.65577,-0.84646 0.44649,-0.29766 1.05575,-0.29766 0.31626,0 0.59066,0.0791 0.27441,0.0791 0.52555,0.2465 z" style="font-style:normal;font-variant:normal;font-weight:normal;font-stretch:normal;font-size:9.52499962px;line-height:200%;font-family:'DejaVu Sans Mono';-inkscape-font-specification:'DejaVu Sans Mono';text-align:start;text-anchor:start;stroke-width:0.26458332px" id="path2783"/>
      <path d="m 222.61628,217.17449 v 0.83716 q -0.36742,-0.21394 -0.73949,-0.32091 -0.37207,-0.10698 -0.75809,-0.10698 -0.58136,0 -0.86972,0.19069 -0.2837,0.18604 -0.2837,0.57206 0,0.34881 0.21394,0.5209 0.21394,0.17208 1.06505,0.33486 l 0.34417,0.0651 q 0.63717,0.12093 0.96273,0.48369 0.33021,0.36277 0.33021,0.94413 0,0.77205 -0.5488,1.20923 -0.54881,0.43253 -1.52549,0.43253 -0.38602,0 -0.80925,-0.0837 -0.42323,-0.0791 -0.91623,-0.24185 v -0.88367 q 0.47904,0.2465 0.91623,0.37207 0.43718,0.12093 0.82785,0.12093 0.56741,0 0.87902,-0.2279 0.31161,-0.23254 0.31161,-0.64647 0,-0.59531 -1.13947,-0.8232 l -0.0372,-0.009 -0.32091,-0.0651 q -0.73949,-0.14417 -1.07901,-0.48369 -0.33951,-0.34416 -0.33951,-0.93483 0,-0.74879 0.50694,-1.15341 0.50695,-0.40928 1.44643,-0.40928 0.41858,0 0.8046,0.0791 0.38602,0.0744 0.75809,0.2279 z" style="font-style:normal;font-variant:normal;font-weight:normal;font-stretch:normal;font-size:9.52499962px;line-height:200%;font-family:'DejaVu Sans Mono';-inkscape-font-specification:'DejaVu Sans Mono';text-align:start;text-anchor:start;stroke-width:0.26458332px" id="path2785"/>
      <path d="m 228.99264,219.38365 v 0.41858 h -3.70675 v 0.0279 q 0,0.85111 0.44184,1.3162 0.44648,0.46509 1.25573,0.46509 0.40928,0 0.85576,-0.13023 0.44649,-0.13022 0.95343,-0.39532 v 0.85111 q -0.48834,0.19999 -0.94412,0.29765 -0.45114,0.10232 -0.87437,0.10232 -1.21388,0 -1.89756,-0.72553 -0.68368,-0.73019 -0.68368,-2.00918 0,-1.24644 0.66973,-1.99058 0.66973,-0.74414 1.78594,-0.74414 0.99529,0 1.56734,0.67438 0.57671,0.67437 0.57671,1.84174 z m -0.85576,-0.25114 q -0.0186,-0.75344 -0.35812,-1.14412 -0.33486,-0.39532 -0.96738,-0.39532 -0.61857,0 -1.01854,0.40927 -0.39998,0.40928 -0.47439,1.13482 z" style="font-style:normal;font-variant:normal;font-weight:normal;font-stretch:normal;font-size:9.52499962px;line-height:200%;font-family:'DejaVu Sans Mono';-inkscape-font-specification:'DejaVu Sans Mono';text-align:start;text-anchor:start;stroke-width:0.26458332px" id="path2787"/>
      <path d="m 234.9225,218.06746 q -0.2744,-0.21394 -0.5581,-0.31161 -0.2837,-0.0977 -0.62322,-0.0977 -0.79995,0 -1.22318,0.50229 -0.42323,0.5023 -0.42323,1.45108 v 2.59054 h -0.86041 v -5.20899 h 0.86041 v 1.01855 q 0.21394,-0.55346 0.65577,-0.84646 0.44649,-0.29766 1.05575,-0.29766 0.31626,0 0.59066,0.0791 0.27441,0.0791 0.52555,0.2465 z" style="font-style:normal;font-variant:normal;font-weight:normal;font-stretch:normal;font-size:9.52499962px;line-height:200%;font-family:'DejaVu Sans Mono';-inkscape-font-specification:'DejaVu Sans Mono';text-align:start;text-anchor:start;stroke-width:0.26458332px" id="path2789"/>
      <path d="m 239.27108,220.52777 q -0.21394,0.54415 -0.54415,1.43247 -0.46044,1.22783 -0.61857,1.49758 -0.21394,0.36277 -0.53485,0.54416 -0.32091,0.18138 -0.74879,0.18138 h -0.68833 v -0.71623 h 0.50695 q 0.37672,0 0.59066,-0.21859 0.21394,-0.2186 0.54415,-1.13017 l -2.01383,-5.12527 h 0.90692 l 1.54409,4.07417 1.52084,-4.07417 h 0.90692 z" style="font-style:normal;font-variant:normal;font-weight:normal;font-stretch:normal;font-size:9.52499962px;line-height:200%;font-family:'DejaVu Sans Mono';-inkscape-font-specification:'DejaVu Sans Mono';text-align:start;text-anchor:start;stroke-width:0.26458332px" id="path2791"/>
      <path d="m 243.28478,217.2582 h 1.17202 v 1.40922 h -1.17202 z m 0,3.52537 h 1.17202 v 1.41852 h -1.17202 z" style="font-style:normal;font-variant:normal;font-weight:normal;font-stretch:normal;font-size:9.52499962px;line-height:200%;font-family:'DejaVu Sans Mono';-inkscape-font-specification:'DejaVu Sans Mono';text-align:start;text-anchor:start;stroke-width:0.26458332px" id="path2793"/>
      <path d="m 45.352685,249.93063 v 3.22771 h -0.860413 v -3.22771 q 0,-0.70229 -0.246497,-1.0325 -0.246496,-0.33021 -0.772045,-0.33021 -0.599964,0 -0.925525,0.42788 -0.320911,0.42323 -0.320911,1.21853 v 2.94401 h -0.855762 v -5.20899 h 0.855762 v 0.78135 q 0.227893,-0.44648 0.618567,-0.67438 0.390674,-0.23254 0.925525,-0.23254 0.7953,0 1.185974,0.52555 0.395325,0.5209 0.395325,1.5813 z" style="font-style:normal;font-variant:normal;font-weight:normal;font-stretch:normal;font-size:9.52499962px;line-height:200%;font-family:'DejaVu Sans Mono';-inkscape-font-specification:'DejaVu Sans Mono';text-align:start;text-anchor:start;stroke-width:0.26458332px" id="path2795"/>
      <path d="m 47.101418,251.18636 v -3.22771 h 0.855761 v 3.22771 q 0,0.70229 0.246497,1.0325 0.251147,0.33021 0.772046,0.33021 0.604614,0 0.925524,-0.42323 0.320911,-0.42788 0.320911,-1.22318 v -2.94401 h 0.860413 v 5.19969 h -0.860413 v -0.78135 q -0.227893,0.45113 -0.623218,0.68368 -0.390673,0.23254 -0.916223,0.23254 -0.799951,0 -1.190625,-0.5209 -0.390673,-0.52555 -0.390673,-1.58595 z" style="font-style:normal;font-variant:normal;font-weight:normal;font-stretch:normal;font-size:9.52499962px;line-height:200%;font-family:'DejaVu Sans Mono';-inkscape-font-specification:'DejaVu Sans Mono';text-align:start;text-anchor:start;stroke-width:0.26458332px" id="path2797"/>
      <path d="m 57.296142,249.0237 q -0.274401,-0.21394 -0.558105,-0.3116 -0.283704,-0.0977 -0.623218,-0.0977 -0.799951,0 -1.223181,0.50229 -0.42323,0.5023 -0.42323,1.45108 v 2.59054 h -0.860412 v -5.20899 h 0.860412 v 1.01854 q 0.213941,-0.55345 0.655774,-0.84646 0.446484,-0.29765 1.055749,-0.29765 0.31626,0 0.590662,0.0791 0.274402,0.0791 0.525549,0.2465 z" style="font-style:normal;font-variant:normal;font-weight:normal;font-stretch:normal;font-size:9.52499962px;line-height:200%;font-family:'DejaVu Sans Mono';-inkscape-font-specification:'DejaVu Sans Mono';text-align:start;text-anchor:start;stroke-width:0.26458332px" id="path2799"/>
      <path d="m 62.179564,248.13074 v 0.83715 q -0.36742,-0.21394 -0.73949,-0.32091 -0.37207,-0.10697 -0.758093,-0.10697 -0.58136,0 -0.869715,0.19069 -0.283703,0.18603 -0.283703,0.57206 0,0.34881 0.21394,0.5209 0.213941,0.17208 1.065052,0.33486 l 0.344165,0.0651 q 0.63717,0.12092 0.962731,0.48369 0.330213,0.36277 0.330213,0.94413 0,0.77205 -0.548804,1.20923 -0.548804,0.43253 -1.525488,0.43253 -0.386023,0 -0.809253,-0.0837 -0.42323,-0.0791 -0.916223,-0.24185 v -0.88367 q 0.47904,0.2465 0.916223,0.37207 0.437183,0.12093 0.827856,0.12093 0.567408,0 0.879016,-0.2279 0.311609,-0.23254 0.311609,-0.64647 0,-0.59531 -1.139465,-0.8232 l -0.03721,-0.009 -0.320911,-0.0651 q -0.739489,-0.14418 -1.079003,-0.48369 -0.339515,-0.34416 -0.339515,-0.93483 0,-0.74879 0.506946,-1.15341 0.506946,-0.40928 1.446423,-0.40928 0.41858,0 0.804602,0.0791 0.386023,0.0744 0.758094,0.2279 z" style="font-style:normal;font-variant:normal;font-weight:normal;font-stretch:normal;font-size:9.52499962px;line-height:200%;font-family:'DejaVu Sans Mono';-inkscape-font-specification:'DejaVu Sans Mono';text-align:start;text-anchor:start;stroke-width:0.26458332px" id="path2801"/>
      <path d="m 68.555921,250.3399 v 0.41858 h -3.70675 v 0.0279 q 0,0.85111 0.441833,1.3162 0.446484,0.46508 1.255737,0.46508 0.409278,0 0.855762,-0.13022 0.446484,-0.13022 0.95343,-0.39532 v 0.85111 q -0.488342,0.19998 -0.944128,0.29765 -0.451135,0.10232 -0.874365,0.10232 -1.21388,0 -1.897559,-0.72554 -0.683679,-0.73018 -0.683679,-2.00918 0,-1.24643 0.669726,-1.99057 0.669727,-0.74414 1.785938,-0.74414 0.995288,0 1.567346,0.67438 0.576709,0.67437 0.576709,1.84174 z m -0.855762,-0.25114 q -0.0186,-0.75345 -0.358117,-1.14412 -0.334864,-0.39532 -0.967383,-0.39532 -0.618567,0 -1.018543,0.40927 -0.399975,0.40928 -0.474389,1.13482 z" style="font-style:normal;font-variant:normal;font-weight:normal;font-stretch:normal;font-size:9.52499962px;line-height:200%;font-family:'DejaVu Sans Mono';-inkscape-font-specification:'DejaVu Sans Mono';text-align:start;text-anchor:start;stroke-width:0.26458332px" id="path2803"/>
      <path d="m 74.48579,249.0237 q -0.274402,-0.21394 -0.558105,-0.3116 -0.283704,-0.0977 -0.623218,-0.0977 -0.799951,0 -1.223181,0.50229 -0.42323,0.5023 -0.42323,1.45108 v 2.59054 h -0.860413 v -5.20899 h 0.860413 v 1.01854 q 0.21394,-0.55345 0.655774,-0.84646 0.446484,-0.29765 1.055749,-0.29765 0.31626,0 0.590662,0.0791 0.274402,0.0791 0.525549,0.2465 z" style="font-style:normal;font-variant:normal;font-weight:normal;font-stretch:normal;font-size:9.52499962px;line-height:200%;font-family:'DejaVu Sans Mono';-inkscape-font-specification:'DejaVu Sans Mono';text-align:start;text-anchor:start;stroke-width:0.26458332px" id="path2805"/>
      <path d="m 78.83436,251.48402 q -0.21394,0.54415 -0.544152,1.43247 -0.460437,1.22783 -0.618567,1.49758 -0.213941,0.36277 -0.534851,0.54416 -0.320911,0.18138 -0.748792,0.18138 h -0.68833 v -0.71623 h 0.506946 q 0.376721,0 0.590661,-0.2186 0.213941,-0.21859 0.544153,-1.13016 l -2.01383,-5.12527 h 0.906921 l 1.544092,4.07417 1.520837,-4.07417 h 0.906922 z" style="font-style:normal;font-variant:normal;font-weight:normal;font-stretch:normal;font-size:9.52499962px;line-height:200%;font-family:'DejaVu Sans Mono';-inkscape-font-specification:'DejaVu Sans Mono';text-align:start;text-anchor:start;stroke-width:0.26458332px" id="path2807"/>
      <path d="m 82.848067,251.73982 h 1.172022 v 1.41852 h -1.172022 z" style="font-style:normal;font-variant:normal;font-weight:normal;font-stretch:normal;font-size:9.52499962px;line-height:200%;font-family:'DejaVu Sans Mono';-inkscape-font-specification:'DejaVu Sans Mono';text-align:start;text-anchor:start;stroke-width:0.26458332px" id="path2809"/>
      <path d="m 90.828982,248.13074 v 0.83715 q -0.36742,-0.21394 -0.73949,-0.32091 -0.37207,-0.10697 -0.758093,-0.10697 -0.58136,0 -0.869715,0.19069 -0.283703,0.18603 -0.283703,0.57206 0,0.34881 0.21394,0.5209 0.213941,0.17208 1.065051,0.33486 l 0.344165,0.0651 q 0.637171,0.12092 0.962732,0.48369 0.330213,0.36277 0.330213,0.94413 0,0.77205 -0.548804,1.20923 -0.548804,0.43253 -1.525488,0.43253 -0.386023,0 -0.809253,-0.0837 -0.42323,-0.0791 -0.916223,-0.24185 v -0.88367 q 0.47904,0.2465 0.916223,0.37207 0.437182,0.12093 0.827856,0.12093 0.567407,0 0.879016,-0.2279 0.311609,-0.23254 0.311609,-0.64647 0,-0.59531 -1.139465,-0.8232 l -0.03721,-0.009 -0.320911,-0.0651 q -0.739489,-0.14418 -1.079004,-0.48369 -0.339514,-0.34416 -0.339514,-0.93483 0,-0.74879 0.506946,-1.15341 0.506946,-0.40928 1.446423,-0.40928 0.418579,0 0.804602,0.0791 0.386023,0.0744 0.758094,0.2279 z" style="font-style:normal;font-variant:normal;font-weight:normal;font-stretch:normal;font-size:9.52499962px;line-height:200%;font-family:'DejaVu Sans Mono';-inkscape-font-specification:'DejaVu Sans Mono';text-align:start;text-anchor:start;stroke-width:0.26458332px" id="path2811"/>
      <path d="m 94.889197,246.47037 v 1.47898 h 1.944068 v 0.66508 h -1.944068 v 2.82773 q 0,0.57671 0.218592,0.8046 0.218591,0.2279 0.762744,0.2279 h 0.962732 v 0.68368 h -1.046448 q -0.962732,0 -1.358057,-0.38603 -0.395324,-0.38602 -0.395324,-1.33015 v -2.82773 h -1.390613 v -0.66508 h 1.390613 v -1.47898 z" style="font-style:normal;font-variant:normal;font-weight:normal;font-stretch:normal;font-size:9.52499962px;line-height:200%;font-family:'DejaVu Sans Mono';-inkscape-font-specification:'DejaVu Sans Mono';text-align:start;text-anchor:start;stroke-width:0.26458332px" id="path2813"/>
      <path d="m 101.02836,250.53989 h -0.28371 q -0.748789,0 -1.130161,0.2651 -0.376721,0.26045 -0.376721,0.78135 0,0.46974 0.283703,0.73019 0.283704,0.26045 0.785999,0.26045 0.70693,0 1.11156,-0.48835 0.40463,-0.49299 0.40928,-1.35805 v -0.19069 z m 1.66036,-0.35347 v 2.97192 h -0.86041 v -0.77205 q -0.2744,0.46509 -0.69298,0.68833 -0.41393,0.21859 -1.00924,0.21859 -0.795305,0 -1.269694,-0.44648 -0.47439,-0.45114 -0.47439,-1.20458 0,-0.86971 0.58136,-1.32085 0.586011,-0.45114 1.716174,-0.45114 h 1.14877 v -0.13487 q -0.005,-0.62322 -0.31626,-0.90227 -0.31161,-0.2837 -0.99529,-0.2837 -0.43718,0 -0.883668,0.12557 -0.446484,0.12557 -0.869714,0.36742 v -0.85576 q 0.47439,-0.18139 0.906921,-0.26975 0.437181,-0.093 0.846461,-0.093 0.64647,0 1.10226,0.19068 0.46043,0.19069 0.74414,0.57206 0.17673,0.23255 0.25115,0.57671 0.0744,0.33952 0.0744,1.02319 z" style="font-style:normal;font-variant:normal;font-weight:normal;font-stretch:normal;font-size:9.52499962px;line-height:200%;font-family:'DejaVu Sans Mono';-inkscape-font-specification:'DejaVu Sans Mono';text-align:start;text-anchor:start;stroke-width:0.26458332px" id="path2815"/>
      <path d="m 108.86509,249.0237 q -0.27441,-0.21394 -0.55811,-0.3116 -0.2837,-0.0977 -0.62322,-0.0977 -0.79995,0 -1.22318,0.50229 -0.42323,0.5023 -0.42323,1.45108 v 2.59054 h -0.86041 v -5.20899 h 0.86041 v 1.01854 q 0.21394,-0.55345 0.65578,-0.84646 0.44648,-0.29765 1.05574,-0.29765 0.31626,0 0.59067,0.0791 0.2744,0.0791 0.52555,0.2465 z" style="font-style:normal;font-variant:normal;font-weight:normal;font-stretch:normal;font-size:9.52499962px;line-height:200%;font-family:'DejaVu Sans Mono';-inkscape-font-specification:'DejaVu Sans Mono';text-align:start;text-anchor:start;stroke-width:0.26458332px" id="path2817"/>
      <path d="m 112.07884,246.47037 v 1.47898 h 1.94407 v 0.66508 h -1.94407 v 2.82773 q 0,0.57671 0.21859,0.8046 0.21859,0.2279 0.76275,0.2279 h 0.96273 v 0.68368 h -1.04645 q -0.96273,0 -1.35806,-0.38603 -0.39532,-0.38602 -0.39532,-1.33015 v -2.82773 h -1.39061 v -0.66508 h 1.39061 v -1.47898 z" style="font-style:normal;font-variant:normal;font-weight:normal;font-stretch:normal;font-size:9.52499962px;line-height:200%;font-family:'DejaVu Sans Mono';-inkscape-font-specification:'DejaVu Sans Mono';text-align:start;text-anchor:start;stroke-width:0.26458332px" id="path2819"/>
      <path d="m 120.68762,255.03264 v 0.37207 h -5.73453 v -0.37207 z" style="font-style:normal;font-variant:normal;font-weight:normal;font-stretch:normal;font-size:9.52499962px;line-height:200%;font-family:'DejaVu Sans Mono';-inkscape-font-specification:'DejaVu Sans Mono';text-align:start;text-anchor:start;stroke-width:0.26458332px" id="path2821"/>
      <path d="m 125.20828,248.13074 v 0.83715 q -0.36742,-0.21394 -0.73949,-0.32091 -0.37207,-0.10697 -0.7581,-0.10697 -0.58136,0 -0.86971,0.19069 -0.2837,0.18603 -0.2837,0.57206 0,0.34881 0.21394,0.5209 0.21394,0.17208 1.06505,0.33486 l 0.34416,0.0651 q 0.63717,0.12092 0.96273,0.48369 0.33022,0.36277 0.33022,0.94413 0,0.77205 -0.54881,1.20923 -0.5488,0.43253 -1.52548,0.43253 -0.38603,0 -0.80926,-0.0837 -0.42323,-0.0791 -0.91622,-0.24185 v -0.88367 q 0.47904,0.2465 0.91622,0.37207 0.43718,0.12093 0.82786,0.12093 0.56741,0 0.87901,-0.2279 0.31161,-0.23254 0.31161,-0.64647 0,-0.59531 -1.13946,-0.8232 l -0.0372,-0.009 -0.32091,-0.0651 q -0.73949,-0.14418 -1.079,-0.48369 -0.33952,-0.34416 -0.33952,-0.93483 0,-0.74879 0.50695,-1.15341 0.50694,-0.40928 1.44642,-0.40928 0.41858,0 0.8046,0.0791 0.38603,0.0744 0.7581,0.2279 z" style="font-style:normal;font-variant:normal;font-weight:normal;font-stretch:normal;font-size:9.52499962px;line-height:200%;font-family:'DejaVu Sans Mono';-inkscape-font-specification:'DejaVu Sans Mono';text-align:start;text-anchor:start;stroke-width:0.26458332px" id="path2823"/>
      <path d="m 129.27779,248.54932 q -0.65112,0 -0.98598,0.50694 -0.33487,0.50695 -0.33487,1.50223 0,0.99064 0.33487,1.50224 0.33486,0.50694 0.98598,0.50694 0.65578,0 0.99064,-0.50694 0.33486,-0.5116 0.33486,-1.50224 0,-0.99528 -0.33486,-1.50223 -0.33486,-0.50694 -0.99064,-0.50694 z m 0,-0.72554 q 1.08366,0 1.65572,0.70228 0.57671,0.70228 0.57671,2.03243 0,1.33481 -0.57206,2.03709 -0.57206,0.69763 -1.66037,0.69763 -1.08365,0 -1.65571,-0.69763 -0.57206,-0.70228 -0.57206,-2.03709 0,-1.33015 0.57206,-2.03243 0.57206,-0.70228 1.65571,-0.70228 z" style="font-style:normal;font-variant:normal;font-weight:normal;font-stretch:normal;font-size:9.52499962px;line-height:200%;font-family:'DejaVu Sans Mono';-inkscape-font-specification:'DejaVu Sans Mono';text-align:start;text-anchor:start;stroke-width:0.26458332px" id="path2825"/>
      <path d="m 135.00768,248.54932 q -0.65113,0 -0.98599,0.50694 -0.33486,0.50695 -0.33486,1.50223 0,0.99064 0.33486,1.50224 0.33486,0.50694 0.98599,0.50694 0.65577,0 0.99063,-0.50694 0.33487,-0.5116 0.33487,-1.50224 0,-0.99528 -0.33487,-1.50223 -0.33486,-0.50694 -0.99063,-0.50694 z m 0,-0.72554 q 1.08365,0 1.65571,0.70228 0.57671,0.70228 0.57671,2.03243 0,1.33481 -0.57206,2.03709 -0.57206,0.69763 -1.66036,0.69763 -1.08366,0 -1.65572,-0.69763 -0.57206,-0.70228 -0.57206,-2.03709 0,-1.33015 0.57206,-2.03243 0.57206,-0.70228 1.65572,-0.70228 z" style="font-style:normal;font-variant:normal;font-weight:normal;font-stretch:normal;font-size:9.52499962px;line-height:200%;font-family:'DejaVu Sans Mono';-inkscape-font-specification:'DejaVu Sans Mono';text-align:start;text-anchor:start;stroke-width:0.26458332px" id="path2827"/>
      <path d="m 142.7607,249.93063 v 3.22771 h -0.86042 v -3.22771 q 0,-0.70229 -0.24649,-1.0325 -0.2465,-0.33021 -0.77205,-0.33021 -0.59996,0 -0.92552,0.42788 -0.32091,0.42323 -0.32091,1.21853 v 2.94401 h -0.85577 v -5.20899 h 0.85577 v 0.78135 q 0.22789,-0.44648 0.61856,-0.67438 0.39068,-0.23254 0.92553,-0.23254 0.7953,0 1.18597,0.52555 0.39533,0.5209 0.39533,1.5813 z" style="font-style:normal;font-variant:normal;font-weight:normal;font-stretch:normal;font-size:9.52499962px;line-height:200%;font-family:'DejaVu Sans Mono';-inkscape-font-specification:'DejaVu Sans Mono';text-align:start;text-anchor:start;stroke-width:0.26458332px" id="path2829"/>
      <path d="m 147.71852,245.93087 q -0.61856,1.0604 -0.92552,2.11615 -0.30231,1.0511 -0.30231,2.1208 0,1.06505 0.30231,2.1208 0.30696,1.05575 0.92552,2.12545 h -0.74414 q -0.70228,-1.10691 -1.04644,-2.15335 -0.34417,-1.0511 -0.34417,-2.0929 0,-1.03714 0.34417,-2.08824 0.34416,-1.0511 1.04644,-2.14871 z" style="font-style:normal;font-variant:normal;font-weight:normal;font-stretch:normal;font-size:9.52499962px;line-height:200%;font-family:'DejaVu Sans Mono';-inkscape-font-specification:'DejaVu Sans Mono';text-align:start;text-anchor:start;stroke-width:0.26458332px" id="path2831"/>
      <path d="m 152.47638,248.47955 q 0.15813,-0.33486 0.39998,-0.49299 0.24649,-0.16278 0.59066,-0.16278 0.62787,0 0.88366,0.48834 0.26045,0.48369 0.26045,1.8278 v 3.01842 h -0.78134 v -2.98122 q 0,-1.10226 -0.12558,-1.36736 -0.12092,-0.26975 -0.44648,-0.26975 -0.37207,0 -0.5116,0.28836 -0.13487,0.2837 -0.13487,1.34875 v 2.98122 h -0.78135 v -2.98122 q 0,-1.11621 -0.13488,-1.37666 -0.13022,-0.26045 -0.47439,-0.26045 -0.33951,0 -0.47439,0.28836 -0.13022,0.2837 -0.13022,1.34875 v 2.98122 h -0.7767 v -5.20899 h 0.7767 v 0.44649 q 0.15348,-0.27906 0.38137,-0.42323 0.23254,-0.14883 0.52555,-0.14883 0.35347,0 0.58601,0.16278 0.2372,0.16278 0.36742,0.49299 z" style="font-style:normal;font-variant:normal;font-weight:normal;font-stretch:normal;font-size:9.52499962px;line-height:200%;font-family:'DejaVu Sans Mono';-inkscape-font-specification:'DejaVu Sans Mono';text-align:start;text-anchor:start;stroke-width:0.26458332px" id="path2833"/>
      <path d="m 159.05271,251.48402 q -0.21394,0.54415 -0.54415,1.43247 -0.46044,1.22783 -0.61857,1.49758 -0.21394,0.36277 -0.53485,0.54416 -0.32091,0.18138 -0.74879,0.18138 h -0.68833 v -0.71623 h 0.50695 q 0.37672,0 0.59066,-0.2186 0.21394,-0.21859 0.54415,-1.13016 l -2.01383,-5.12527 h 0.90692 l 1.54409,4.07417 1.52084,-4.07417 h 0.90692 z" style="font-style:normal;font-variant:normal;font-weight:normal;font-stretch:normal;font-size:9.52499962px;line-height:200%;font-family:'DejaVu Sans Mono';-inkscape-font-specification:'DejaVu Sans Mono';text-align:start;text-anchor:start;stroke-width:0.26458332px" id="path2835"/>
      <path d="m 165.73603,245.92157 v 0.71158 H 164.764 q -0.46044,0 -0.64182,0.19069 -0.17674,0.18603 -0.17674,0.66508 v 0.46043 h 1.79059 v 0.66508 h -1.79059 v 4.54391 h -0.85576 v -4.54391 h -1.39061 v -0.66508 h 1.39061 v -0.36277 q 0,-0.85576 0.39068,-1.26038 0.39532,-0.40463 1.22783,-0.40463 z" style="font-style:normal;font-variant:normal;font-weight:normal;font-stretch:normal;font-size:9.52499962px;line-height:200%;font-family:'DejaVu Sans Mono';-inkscape-font-specification:'DejaVu Sans Mono';text-align:start;text-anchor:start;stroke-width:0.26458332px" id="path2837"/>
      <path d="m 167.42896,251.18636 v -3.22771 h 0.85576 v 3.22771 q 0,0.70229 0.2465,1.0325 0.25114,0.33021 0.77204,0.33021 0.60462,0 0.92553,-0.42323 0.32091,-0.42788 0.32091,-1.22318 v -2.94401 h 0.86041 v 5.19969 h -0.86041 v -0.78135 q -0.22789,0.45113 -0.62322,0.68368 -0.39067,0.23254 -0.91622,0.23254 -0.79995,0 -1.19063,-0.5209 -0.39067,-0.52555 -0.39067,-1.58595 z" style="font-style:normal;font-variant:normal;font-weight:normal;font-stretch:normal;font-size:9.52499962px;line-height:200%;font-family:'DejaVu Sans Mono';-inkscape-font-specification:'DejaVu Sans Mono';text-align:start;text-anchor:start;stroke-width:0.26458332px" id="path2839"/>
      <path d="m 177.13998,249.93063 v 3.22771 h -0.86041 v -3.22771 q 0,-0.70229 -0.24649,-1.0325 -0.2465,-0.33021 -0.77205,-0.33021 -0.59996,0 -0.92553,0.42788 -0.32091,0.42323 -0.32091,1.21853 v 2.94401 h -0.85576 v -5.20899 h 0.85576 v 0.78135 q 0.2279,-0.44648 0.61857,-0.67438 0.39067,-0.23254 0.92553,-0.23254 0.7953,0 1.18597,0.52555 0.39532,0.5209 0.39532,1.5813 z" style="font-style:normal;font-variant:normal;font-weight:normal;font-stretch:normal;font-size:9.52499962px;line-height:200%;font-family:'DejaVu Sans Mono';-inkscape-font-specification:'DejaVu Sans Mono';text-align:start;text-anchor:start;stroke-width:0.26458332px" id="path2841"/>
      <path d="m 182.91638,252.89324 q -0.34416,0.19998 -0.71158,0.29765 -0.36277,0.10232 -0.74414,0.10232 -1.20923,0 -1.89291,-0.72554 -0.67903,-0.72553 -0.67903,-2.00918 0,-1.28364 0.67903,-2.00917 0.68368,-0.72554 1.89291,-0.72554 0.37672,0 0.73484,0.0977 0.35811,0.0977 0.72088,0.3023 v 0.89762 q -0.33951,-0.3023 -0.68368,-0.43718 -0.33951,-0.13487 -0.77204,-0.13487 -0.8046,0 -1.23714,0.52089 -0.43253,0.5209 -0.43253,1.48828 0,0.96274 0.43253,1.48829 0.43719,0.52089 1.23714,0.52089 0.44648,0 0.79995,-0.13487 0.35347,-0.13953 0.65577,-0.42788 z" style="font-style:normal;font-variant:normal;font-weight:normal;font-stretch:normal;font-size:9.52499962px;line-height:200%;font-family:'DejaVu Sans Mono';-inkscape-font-specification:'DejaVu Sans Mono';text-align:start;text-anchor:start;stroke-width:0.26458332px" id="path2843"/>
      <path d="m 185.33018,245.93087 h 0.74414 q 0.70228,1.09761 1.04645,2.14871 0.34416,1.0511 0.34416,2.08824 0,1.04645 -0.34416,2.09755 -0.34417,1.0511 -1.04645,2.1487 h -0.74414 q 0.61857,-1.079 0.92087,-2.13475 0.30696,-1.05575 0.30696,-2.1115 0,-1.0604 -0.30696,-2.11615 -0.3023,-1.05575 -0.92087,-2.1208 z" style="font-style:normal;font-variant:normal;font-weight:normal;font-stretch:normal;font-size:9.52499962px;line-height:200%;font-family:'DejaVu Sans Mono';-inkscape-font-specification:'DejaVu Sans Mono';text-align:start;text-anchor:start;stroke-width:0.26458332px" id="path2845"/>
      <path d="m 45.352685,268.98063 v 3.22771 h -0.860413 v -3.22771 q 0,-0.70229 -0.246497,-1.0325 -0.246496,-0.33021 -0.772045,-0.33021 -0.599964,0 -0.925525,0.42788 -0.320911,0.42323 -0.320911,1.21853 v 2.94401 h -0.855762 v -5.20899 h 0.855762 v 0.78135 q 0.227893,-0.44649 0.618567,-0.67438 0.390674,-0.23254 0.925525,-0.23254 0.7953,0 1.185974,0.52555 0.395325,0.5209 0.395325,1.5813 z" style="font-style:normal;font-variant:normal;font-weight:normal;font-stretch:normal;font-size:9.52499962px;line-height:200%;font-family:'DejaVu Sans Mono';-inkscape-font-specification:'DejaVu Sans Mono';text-align:start;text-anchor:start;stroke-width:0.26458332px" id="path2847"/>
      <path d="m 47.101418,270.23636 v -3.22771 h 0.855761 v 3.22771 q 0,0.70229 0.246497,1.0325 0.251147,0.33021 0.772046,0.33021 0.604614,0 0.925524,-0.42323 0.320911,-0.42788 0.320911,-1.22318 v -2.94401 h 0.860413 v 5.19969 h -0.860413 v -0.78135 q -0.227893,0.45113 -0.623218,0.68368 -0.390673,0.23254 -0.916223,0.23254 -0.799951,0 -1.190625,-0.5209 -0.390673,-0.52555 -0.390673,-1.58595 z" style="font-style:normal;font-variant:normal;font-weight:normal;font-stretch:normal;font-size:9.52499962px;line-height:200%;font-family:'DejaVu Sans Mono';-inkscape-font-specification:'DejaVu Sans Mono';text-align:start;text-anchor:start;stroke-width:0.26458332px" id="path2849"/>
      <path d="m 57.296142,268.0737 q -0.274401,-0.21394 -0.558105,-0.3116 -0.283704,-0.0977 -0.623218,-0.0977 -0.799951,0 -1.223181,0.50229 -0.42323,0.5023 -0.42323,1.45108 v 2.59054 h -0.860412 v -5.20899 h 0.860412 v 1.01854 q 0.213941,-0.55345 0.655774,-0.84646 0.446484,-0.29765 1.055749,-0.29765 0.31626,0 0.590662,0.0791 0.274402,0.0791 0.525549,0.2465 z" style="font-style:normal;font-variant:normal;font-weight:normal;font-stretch:normal;font-size:9.52499962px;line-height:200%;font-family:'DejaVu Sans Mono';-inkscape-font-specification:'DejaVu Sans Mono';text-align:start;text-anchor:start;stroke-width:0.26458332px" id="path2851"/>
      <path d="m 62.179564,267.18074 v 0.83715 q -0.36742,-0.21394 -0.73949,-0.32091 -0.37207,-0.10697 -0.758093,-0.10697 -0.58136,0 -0.869715,0.19069 -0.283703,0.18603 -0.283703,0.57206 0,0.34881 0.21394,0.5209 0.213941,0.17208 1.065052,0.33486 l 0.344165,0.0651 q 0.63717,0.12092 0.962731,0.48369 0.330213,0.36277 0.330213,0.94413 0,0.77205 -0.548804,1.20923 -0.548804,0.43253 -1.525488,0.43253 -0.386023,0 -0.809253,-0.0837 -0.42323,-0.0791 -0.916223,-0.24185 v -0.88367 q 0.47904,0.2465 0.916223,0.37207 0.437183,0.12093 0.827856,0.12093 0.567408,0 0.879016,-0.2279 0.311609,-0.23254 0.311609,-0.64647 0,-0.59531 -1.139465,-0.82321 l -0.03721,-0.009 -0.320911,-0.0651 q -0.739489,-0.14418 -1.079003,-0.48369 -0.339515,-0.34417 -0.339515,-0.93483 0,-0.74879 0.506946,-1.15342 0.506946,-0.40927 1.446423,-0.40927 0.41858,0 0.804602,0.0791 0.386023,0.0744 0.758094,0.2279 z" style="font-style:normal;font-variant:normal;font-weight:normal;font-stretch:normal;font-size:9.52499962px;line-height:200%;font-family:'DejaVu Sans Mono';-inkscape-font-specification:'DejaVu Sans Mono';text-align:start;text-anchor:start;stroke-width:0.26458332px" id="path2853"/>
      <path d="m 68.555921,269.3899 v 0.41858 h -3.70675 v 0.0279 q 0,0.85111 0.441833,1.3162 0.446484,0.46508 1.255737,0.46508 0.409278,0 0.855762,-0.13022 0.446484,-0.13023 0.95343,-0.39533 v 0.85112 q -0.488342,0.19998 -0.944128,0.29765 -0.451135,0.10232 -0.874365,0.10232 -1.21388,0 -1.897559,-0.72554 -0.683679,-0.73018 -0.683679,-2.00918 0,-1.24643 0.669726,-1.99057 0.669727,-0.74414 1.785938,-0.74414 0.995288,0 1.567346,0.67437 0.576709,0.67438 0.576709,1.84175 z m -0.855762,-0.25114 q -0.0186,-0.75345 -0.358117,-1.14412 -0.334864,-0.39533 -0.967383,-0.39533 -0.618567,0 -1.018543,0.40928 -0.399975,0.40928 -0.474389,1.13482 z" style="font-style:normal;font-variant:normal;font-weight:normal;font-stretch:normal;font-size:9.52499962px;line-height:200%;font-family:'DejaVu Sans Mono';-inkscape-font-specification:'DejaVu Sans Mono';text-align:start;text-anchor:start;stroke-width:0.26458332px" id="path2855"/>
      <path d="m 74.48579,268.0737 q -0.274402,-0.21394 -0.558105,-0.3116 -0.283704,-0.0977 -0.623218,-0.0977 -0.799951,0 -1.223181,0.50229 -0.42323,0.5023 -0.42323,1.45108 v 2.59054 h -0.860413 v -5.20899 h 0.860413 v 1.01854 q 0.21394,-0.55345 0.655774,-0.84646 0.446484,-0.29765 1.055749,-0.29765 0.31626,0 0.590662,0.0791 0.274402,0.0791 0.525549,0.2465 z" style="font-style:normal;font-variant:normal;font-weight:normal;font-stretch:normal;font-size:9.52499962px;line-height:200%;font-family:'DejaVu Sans Mono';-inkscape-font-specification:'DejaVu Sans Mono';text-align:start;text-anchor:start;stroke-width:0.26458332px" id="path2857"/>
      <path d="m 78.83436,270.53402 q -0.21394,0.54415 -0.544152,1.43247 -0.460437,1.22783 -0.618567,1.49758 -0.213941,0.36277 -0.534851,0.54416 -0.320911,0.18138 -0.748792,0.18138 h -0.68833 v -0.71624 h 0.506946 q 0.376721,0 0.590661,-0.21859 0.213941,-0.21859 0.544153,-1.13016 l -2.01383,-5.12527 h 0.906921 l 1.544092,4.07417 1.520837,-4.07417 h 0.906922 z" style="font-style:normal;font-variant:normal;font-weight:normal;font-stretch:normal;font-size:9.52499962px;line-height:200%;font-family:'DejaVu Sans Mono';-inkscape-font-specification:'DejaVu Sans Mono';text-align:start;text-anchor:start;stroke-width:0.26458332px" id="path2859"/>
      <path d="m 82.848067,270.78982 h 1.172022 v 1.41852 h -1.172022 z" style="font-style:normal;font-variant:normal;font-weight:normal;font-stretch:normal;font-size:9.52499962px;line-height:200%;font-family:'DejaVu Sans Mono';-inkscape-font-specification:'DejaVu Sans Mono';text-align:start;text-anchor:start;stroke-width:0.26458332px" id="path2861"/>
      <path d="m 90.828982,267.18074 v 0.83715 q -0.36742,-0.21394 -0.73949,-0.32091 -0.37207,-0.10697 -0.758093,-0.10697 -0.58136,0 -0.869715,0.19069 -0.283703,0.18603 -0.283703,0.57206 0,0.34881 0.21394,0.5209 0.213941,0.17208 1.065051,0.33486 l 0.344165,0.0651 q 0.637171,0.12092 0.962732,0.48369 0.330213,0.36277 0.330213,0.94413 0,0.77205 -0.548804,1.20923 -0.548804,0.43253 -1.525488,0.43253 -0.386023,0 -0.809253,-0.0837 -0.42323,-0.0791 -0.916223,-0.24185 v -0.88367 q 0.47904,0.2465 0.916223,0.37207 0.437182,0.12093 0.827856,0.12093 0.567407,0 0.879016,-0.2279 0.311609,-0.23254 0.311609,-0.64647 0,-0.59531 -1.139465,-0.82321 l -0.03721,-0.009 -0.320911,-0.0651 q -0.739489,-0.14418 -1.079004,-0.48369 -0.339514,-0.34417 -0.339514,-0.93483 0,-0.74879 0.506946,-1.15342 0.506946,-0.40927 1.446423,-0.40927 0.418579,0 0.804602,0.0791 0.386023,0.0744 0.758094,0.2279 z" style="font-style:normal;font-variant:normal;font-weight:normal;font-stretch:normal;font-size:9.52499962px;line-height:200%;font-family:'DejaVu Sans Mono';-inkscape-font-specification:'DejaVu Sans Mono';text-align:start;text-anchor:start;stroke-width:0.26458332px" id="path2863"/>
      <path d="m 94.889197,265.52037 v 1.47898 h 1.944068 v 0.66508 h -1.944068 v 2.82773 q 0,0.57671 0.218592,0.8046 0.218591,0.2279 0.762744,0.2279 h 0.962732 v 0.68368 h -1.046448 q -0.962732,0 -1.358057,-0.38603 -0.395324,-0.38602 -0.395324,-1.33015 v -2.82773 h -1.390613 v -0.66508 h 1.390613 v -1.47898 z" style="font-style:normal;font-variant:normal;font-weight:normal;font-stretch:normal;font-size:9.52499962px;line-height:200%;font-family:'DejaVu Sans Mono';-inkscape-font-specification:'DejaVu Sans Mono';text-align:start;text-anchor:start;stroke-width:0.26458332px" id="path2865"/>
      <path d="m 101.02836,269.58989 h -0.28371 q -0.748789,0 -1.130161,0.2651 -0.376721,0.26045 -0.376721,0.78135 0,0.46974 0.283703,0.73019 0.283704,0.26045 0.785999,0.26045 0.70693,0 1.11156,-0.48835 0.40463,-0.49299 0.40928,-1.35805 v -0.19069 z m 1.66036,-0.35347 v 2.97192 h -0.86041 v -0.77205 q -0.2744,0.46509 -0.69298,0.68833 -0.41393,0.21859 -1.00924,0.21859 -0.795305,0 -1.269694,-0.44648 -0.47439,-0.45114 -0.47439,-1.20458 0,-0.86972 0.58136,-1.32085 0.586011,-0.45114 1.716174,-0.45114 h 1.14877 v -0.13487 q -0.005,-0.62322 -0.31626,-0.90227 -0.31161,-0.28371 -0.99529,-0.28371 -0.43718,0 -0.883668,0.12558 -0.446484,0.12557 -0.869714,0.36742 v -0.85576 q 0.47439,-0.18139 0.906921,-0.26975 0.437181,-0.093 0.846461,-0.093 0.64647,0 1.10226,0.19068 0.46043,0.19069 0.74414,0.57206 0.17673,0.23255 0.25115,0.57671 0.0744,0.33951 0.0744,1.02319 z" style="font-style:normal;font-variant:normal;font-weight:normal;font-stretch:normal;font-size:9.52499962px;line-height:200%;font-family:'DejaVu Sans Mono';-inkscape-font-specification:'DejaVu Sans Mono';text-align:start;text-anchor:start;stroke-width:0.26458332px" id="path2867"/>
      <path d="m 108.86509,268.0737 q -0.27441,-0.21394 -0.55811,-0.3116 -0.2837,-0.0977 -0.62322,-0.0977 -0.79995,0 -1.22318,0.50229 -0.42323,0.5023 -0.42323,1.45108 v 2.59054 h -0.86041 v -5.20899 h 0.86041 v 1.01854 q 0.21394,-0.55345 0.65578,-0.84646 0.44648,-0.29765 1.05574,-0.29765 0.31626,0 0.59067,0.0791 0.2744,0.0791 0.52555,0.2465 z" style="font-style:normal;font-variant:normal;font-weight:normal;font-stretch:normal;font-size:9.52499962px;line-height:200%;font-family:'DejaVu Sans Mono';-inkscape-font-specification:'DejaVu Sans Mono';text-align:start;text-anchor:start;stroke-width:0.26458332px" id="path2869"/>
      <path d="m 112.07884,265.52037 v 1.47898 h 1.94407 v 0.66508 h -1.94407 v 2.82773 q 0,0.57671 0.21859,0.8046 0.21859,0.2279 0.76275,0.2279 h 0.96273 v 0.68368 h -1.04645 q -0.96273,0 -1.35806,-0.38603 -0.39532,-0.38602 -0.39532,-1.33015 v -2.82773 h -1.39061 v -0.66508 h 1.39061 v -1.47898 z" style="font-style:normal;font-variant:normal;font-weight:normal;font-stretch:normal;font-size:9.52499962px;line-height:200%;font-family:'DejaVu Sans Mono';-inkscape-font-specification:'DejaVu Sans Mono';text-align:start;text-anchor:start;stroke-width:0.26458332px" id="path2871"/>
      <path d="m 120.68762,274.08264 v 0.37207 h -5.73453 v -0.37207 z" style="font-style:normal;font-variant:normal;font-weight:normal;font-stretch:normal;font-size:9.52499962px;line-height:200%;font-family:'DejaVu Sans Mono';-inkscape-font-specification:'DejaVu Sans Mono';text-align:start;text-anchor:start;stroke-width:0.26458332px" id="path2873"/>
      <path d="m 125.20828,267.18074 v 0.83715 q -0.36742,-0.21394 -0.73949,-0.32091 -0.37207,-0.10697 -0.7581,-0.10697 -0.58136,0 -0.86971,0.19069 -0.2837,0.18603 -0.2837,0.57206 0,0.34881 0.21394,0.5209 0.21394,0.17208 1.06505,0.33486 l 0.34416,0.0651 q 0.63717,0.12092 0.96273,0.48369 0.33022,0.36277 0.33022,0.94413 0,0.77205 -0.54881,1.20923 -0.5488,0.43253 -1.52548,0.43253 -0.38603,0 -0.80926,-0.0837 -0.42323,-0.0791 -0.91622,-0.24185 v -0.88367 q 0.47904,0.2465 0.91622,0.37207 0.43718,0.12093 0.82786,0.12093 0.56741,0 0.87901,-0.2279 0.31161,-0.23254 0.31161,-0.64647 0,-0.59531 -1.13946,-0.82321 l -0.0372,-0.009 -0.32091,-0.0651 q -0.73949,-0.14418 -1.079,-0.48369 -0.33952,-0.34417 -0.33952,-0.93483 0,-0.74879 0.50695,-1.15342 0.50694,-0.40927 1.44642,-0.40927 0.41858,0 0.8046,0.0791 0.38603,0.0744 0.7581,0.2279 z" style="font-style:normal;font-variant:normal;font-weight:normal;font-stretch:normal;font-size:9.52499962px;line-height:200%;font-family:'DejaVu Sans Mono';-inkscape-font-specification:'DejaVu Sans Mono';text-align:start;text-anchor:start;stroke-width:0.26458332px" id="path2875"/>
      <path d="m 129.27779,267.59931 q -0.65112,0 -0.98598,0.50695 -0.33487,0.50695 -0.33487,1.50223 0,0.99064 0.33487,1.50224 0.33486,0.50694 0.98598,0.50694 0.65578,0 0.99064,-0.50694 0.33486,-0.5116 0.33486,-1.50224 0,-0.99528 -0.33486,-1.50223 -0.33486,-0.50695 -0.99064,-0.50695 z m 0,-0.72553 q 1.08366,0 1.65572,0.70228 0.57671,0.70228 0.57671,2.03243 0,1.33481 -0.57206,2.03709 -0.57206,0.69763 -1.66037,0.69763 -1.08365,0 -1.65571,-0.69763 -0.57206,-0.70228 -0.57206,-2.03709 0,-1.33015 0.57206,-2.03243 0.57206,-0.70228 1.65571,-0.70228 z" style="font-style:normal;font-variant:normal;font-weight:normal;font-stretch:normal;font-size:9.52499962px;line-height:200%;font-family:'DejaVu Sans Mono';-inkscape-font-specification:'DejaVu Sans Mono';text-align:start;text-anchor:start;stroke-width:0.26458332px" id="path2877"/>
      <path d="m 135.00768,267.59931 q -0.65113,0 -0.98599,0.50695 -0.33486,0.50695 -0.33486,1.50223 0,0.99064 0.33486,1.50224 0.33486,0.50694 0.98599,0.50694 0.65577,0 0.99063,-0.50694 0.33487,-0.5116 0.33487,-1.50224 0,-0.99528 -0.33487,-1.50223 -0.33486,-0.50695 -0.99063,-0.50695 z m 0,-0.72553 q 1.08365,0 1.65571,0.70228 0.57671,0.70228 0.57671,2.03243 0,1.33481 -0.57206,2.03709 -0.57206,0.69763 -1.66036,0.69763 -1.08366,0 -1.65572,-0.69763 -0.57206,-0.70228 -0.57206,-2.03709 0,-1.33015 0.57206,-2.03243 0.57206,-0.70228 1.65572,-0.70228 z" style="font-style:normal;font-variant:normal;font-weight:normal;font-stretch:normal;font-size:9.52499962px;line-height:200%;font-family:'DejaVu Sans Mono';-inkscape-font-specification:'DejaVu Sans Mono';text-align:start;text-anchor:start;stroke-width:0.26458332px" id="path2879"/>
      <path d="m 142.7607,268.98063 v 3.22771 h -0.86042 v -3.22771 q 0,-0.70229 -0.24649,-1.0325 -0.2465,-0.33021 -0.77205,-0.33021 -0.59996,0 -0.92552,0.42788 -0.32091,0.42323 -0.32091,1.21853 v 2.94401 h -0.85577 v -5.20899 h 0.85577 v 0.78135 q 0.22789,-0.44649 0.61856,-0.67438 0.39068,-0.23254 0.92553,-0.23254 0.7953,0 1.18597,0.52555 0.39533,0.5209 0.39533,1.5813 z" style="font-style:normal;font-variant:normal;font-weight:normal;font-stretch:normal;font-size:9.52499962px;line-height:200%;font-family:'DejaVu Sans Mono';-inkscape-font-specification:'DejaVu Sans Mono';text-align:start;text-anchor:start;stroke-width:0.26458332px" id="path2881"/>
      <path d="m 147.71852,264.98087 q -0.61856,1.0604 -0.92552,2.11615 -0.30231,1.0511 -0.30231,2.1208 0,1.06505 0.30231,2.1208 0.30696,1.05575 0.92552,2.12545 h -0.74414 q -0.70228,-1.10691 -1.04644,-2.15335 -0.34417,-1.0511 -0.34417,-2.0929 0,-1.03715 0.34417,-2.08824 0.34416,-1.0511 1.04644,-2.14871 z" style="font-style:normal;font-variant:normal;font-weight:normal;font-stretch:normal;font-size:9.52499962px;line-height:200%;font-family:'DejaVu Sans Mono';-inkscape-font-specification:'DejaVu Sans Mono';text-align:start;text-anchor:start;stroke-width:0.26458332px" id="path2883"/>
      <path d="m 152.5973,269.58989 h -0.2837 q -0.74879,0 -1.13016,0.2651 -0.37673,0.26045 -0.37673,0.78135 0,0.46974 0.28371,0.73019 0.2837,0.26045 0.786,0.26045 0.70693,0 1.11156,-0.48835 0.40462,-0.49299 0.40927,-1.35805 v -0.19069 z m 1.66037,-0.35347 v 2.97192 h -0.86042 v -0.77205 q -0.2744,0.46509 -0.69298,0.68833 -0.41393,0.21859 -1.00924,0.21859 -0.7953,0 -1.26969,-0.44648 -0.47439,-0.45114 -0.47439,-1.20458 0,-0.86972 0.58136,-1.32085 0.58601,-0.45114 1.71618,-0.45114 h 1.14876 v -0.13487 q -0.005,-0.62322 -0.31626,-0.90227 -0.3116,-0.28371 -0.99528,-0.28371 -0.43719,0 -0.88367,0.12558 -0.44649,0.12557 -0.86972,0.36742 v -0.85576 q 0.47439,-0.18139 0.90693,-0.26975 0.43718,-0.093 0.84646,-0.093 0.64647,0 1.10225,0.19068 0.46044,0.19069 0.74415,0.57206 0.17673,0.23255 0.25114,0.57671 0.0744,0.33951 0.0744,1.02319 z" style="font-style:normal;font-variant:normal;font-weight:normal;font-stretch:normal;font-size:9.52499962px;line-height:200%;font-family:'DejaVu Sans Mono';-inkscape-font-specification:'DejaVu Sans Mono';text-align:start;text-anchor:start;stroke-width:0.26458332px" id="path2885"/>
      <path d="m 159.95033,268.98063 v 3.22771 h -0.86041 v -3.22771 q 0,-0.70229 -0.2465,-1.0325 -0.24649,-0.33021 -0.77204,-0.33021 -0.59997,0 -0.92553,0.42788 -0.32091,0.42323 -0.32091,1.21853 v 2.94401 h -0.85576 v -5.20899 h 0.85576 v 0.78135 q 0.2279,-0.44649 0.61857,-0.67438 0.39067,-0.23254 0.92552,-0.23254 0.7953,0 1.18598,0.52555 0.39532,0.5209 0.39532,1.5813 z" style="font-style:normal;font-variant:normal;font-weight:normal;font-stretch:normal;font-size:9.52499962px;line-height:200%;font-family:'DejaVu Sans Mono';-inkscape-font-specification:'DejaVu Sans Mono';text-align:start;text-anchor:start;stroke-width:0.26458332px" id="path2887"/>
      <path d="m 163.65709,267.59931 q -0.65112,0 -0.98599,0.50695 -0.33486,0.50695 -0.33486,1.50223 0,0.99064 0.33486,1.50224 0.33487,0.50694 0.98599,0.50694 0.65577,0 0.99064,-0.50694 0.33486,-0.5116 0.33486,-1.50224 0,-0.99528 -0.33486,-1.50223 -0.33487,-0.50695 -0.99064,-0.50695 z m 0,-0.72553 q 1.08365,0 1.65571,0.70228 0.57671,0.70228 0.57671,2.03243 0,1.33481 -0.57206,2.03709 -0.57205,0.69763 -1.66036,0.69763 -1.08365,0 -1.65571,-0.69763 -0.57206,-0.70228 -0.57206,-2.03709 0,-1.33015 0.57206,-2.03243 0.57206,-0.70228 1.65571,-0.70228 z" style="font-style:normal;font-variant:normal;font-weight:normal;font-stretch:normal;font-size:9.52499962px;line-height:200%;font-family:'DejaVu Sans Mono';-inkscape-font-specification:'DejaVu Sans Mono';text-align:start;text-anchor:start;stroke-width:0.26458332px" id="path2889"/>
      <path d="m 169.37768,265.52037 v 1.47898 h 1.94406 v 0.66508 h -1.94406 v 2.82773 q 0,0.57671 0.21859,0.8046 0.21859,0.2279 0.76274,0.2279 h 0.96273 v 0.68368 h -1.04644 q -0.96274,0 -1.35806,-0.38603 -0.39532,-0.38602 -0.39532,-1.33015 v -2.82773 h -1.39062 v -0.66508 h 1.39062 v -1.47898 z" style="font-style:normal;font-variant:normal;font-weight:normal;font-stretch:normal;font-size:9.52499962px;line-height:200%;font-family:'DejaVu Sans Mono';-inkscape-font-specification:'DejaVu Sans Mono';text-align:start;text-anchor:start;stroke-width:0.26458332px" id="path2891"/>
      <path d="m 177.13998,268.98063 v 3.22771 h -0.86041 v -3.22771 q 0,-0.70229 -0.24649,-1.0325 -0.2465,-0.33021 -0.77205,-0.33021 -0.59996,0 -0.92553,0.42788 -0.32091,0.42323 -0.32091,1.21853 v 2.94401 h -0.85576 v -7.23677 h 0.85576 v 2.80913 q 0.2279,-0.44649 0.61857,-0.67438 0.39067,-0.23254 0.92553,-0.23254 0.7953,0 1.18597,0.52555 0.39532,0.5209 0.39532,1.5813 z" style="font-style:normal;font-variant:normal;font-weight:normal;font-stretch:normal;font-size:9.52499962px;line-height:200%;font-family:'DejaVu Sans Mono';-inkscape-font-specification:'DejaVu Sans Mono';text-align:start;text-anchor:start;stroke-width:0.26458332px" id="path2893"/>
      <path d="m 183.15358,269.3899 v 0.41858 h -3.70675 v 0.0279 q 0,0.85111 0.44183,1.3162 0.44648,0.46508 1.25574,0.46508 0.40927,0 0.85576,-0.13022 0.44648,-0.13023 0.95343,-0.39533 v 0.85112 q -0.48834,0.19998 -0.94413,0.29765 -0.45113,0.10232 -0.87436,0.10232 -1.21388,0 -1.89756,-0.72554 -0.68368,-0.73018 -0.68368,-2.00918 0,-1.24643 0.66972,-1.99057 0.66973,-0.74414 1.78594,-0.74414 0.99529,0 1.56735,0.67437 0.57671,0.67438 0.57671,1.84175 z m -0.85576,-0.25114 q -0.0186,-0.75345 -0.35812,-1.14412 -0.33487,-0.39533 -0.96738,-0.39533 -0.61857,0 -1.01855,0.40928 -0.39997,0.40928 -0.47439,1.13482 z" style="font-style:normal;font-variant:normal;font-weight:normal;font-stretch:normal;font-size:9.52499962px;line-height:200%;font-family:'DejaVu Sans Mono';-inkscape-font-specification:'DejaVu Sans Mono';text-align:start;text-anchor:start;stroke-width:0.26458332px" id="path2895"/>
      <path d="m 189.08344,268.0737 q -0.2744,-0.21394 -0.55811,-0.3116 -0.2837,-0.0977 -0.62321,-0.0977 -0.79996,0 -1.22319,0.50229 -0.42323,0.5023 -0.42323,1.45108 v 2.59054 h -0.86041 v -5.20899 h 0.86041 v 1.01854 q 0.21394,-0.55345 0.65578,-0.84646 0.44648,-0.29765 1.05575,-0.29765 0.31626,0 0.59066,0.0791 0.2744,0.0791 0.52555,0.2465 z" style="font-style:normal;font-variant:normal;font-weight:normal;font-stretch:normal;font-size:9.52499962px;line-height:200%;font-family:'DejaVu Sans Mono';-inkscape-font-specification:'DejaVu Sans Mono';text-align:start;text-anchor:start;stroke-width:0.26458332px" id="path2897"/>
      <path d="m 194.38545,264.97157 v 0.71158 h -0.97204 q -0.46043,0 -0.64182,0.19069 -0.17673,0.18603 -0.17673,0.66507 v 0.46044 h 1.79059 v 0.66508 h -1.79059 v 4.54391 h -0.85576 v -4.54391 h -1.39062 v -0.66508 h 1.39062 v -0.36277 q 0,-0.85576 0.39067,-1.26039 0.39533,-0.40462 1.22783,-0.40462 z" style="font-style:normal;font-variant:normal;font-weight:normal;font-stretch:normal;font-size:9.52499962px;line-height:200%;font-family:'DejaVu Sans Mono';-inkscape-font-specification:'DejaVu Sans Mono';text-align:start;text-anchor:start;stroke-width:0.26458332px" id="path2899"/>
      <path d="m 196.07837,270.23636 v -3.22771 h 0.85576 v 3.22771 q 0,0.70229 0.2465,1.0325 0.25115,0.33021 0.77205,0.33021 0.60461,0 0.92552,-0.42323 0.32091,-0.42788 0.32091,-1.22318 v -2.94401 h 0.86042 v 5.19969 h -0.86042 v -0.78135 q -0.22789,0.45113 -0.62322,0.68368 -0.39067,0.23254 -0.91622,0.23254 -0.79995,0 -1.19062,-0.5209 -0.39068,-0.52555 -0.39068,-1.58595 z" style="font-style:normal;font-variant:normal;font-weight:normal;font-stretch:normal;font-size:9.52499962px;line-height:200%;font-family:'DejaVu Sans Mono';-inkscape-font-specification:'DejaVu Sans Mono';text-align:start;text-anchor:start;stroke-width:0.26458332px" id="path2901"/>
      <path d="m 205.7894,268.98063 v 3.22771 h -0.86041 v -3.22771 q 0,-0.70229 -0.2465,-1.0325 -0.2465,-0.33021 -0.77205,-0.33021 -0.59996,0 -0.92552,0.42788 -0.32091,0.42323 -0.32091,1.21853 v 2.94401 h -0.85576 v -5.20899 h 0.85576 v 0.78135 q 0.22789,-0.44649 0.61857,-0.67438 0.39067,-0.23254 0.92552,-0.23254 0.7953,0 1.18597,0.52555 0.39533,0.5209 0.39533,1.5813 z" style="font-style:normal;font-variant:normal;font-weight:normal;font-stretch:normal;font-size:9.52499962px;line-height:200%;font-family:'DejaVu Sans Mono';-inkscape-font-specification:'DejaVu Sans Mono';text-align:start;text-anchor:start;stroke-width:0.26458332px" id="path2903"/>
      <path d="m 211.5658,271.94324 q -0.34417,0.19998 -0.71159,0.29765 -0.36277,0.10232 -0.74414,0.10232 -1.20923,0 -1.89291,-0.72554 -0.67902,-0.72553 -0.67902,-2.00918 0,-1.28364 0.67902,-2.00918 0.68368,-0.72553 1.89291,-0.72553 0.37672,0 0.73484,0.0977 0.35812,0.0977 0.72089,0.3023 v 0.89762 q -0.33952,-0.3023 -0.68368,-0.43718 -0.33952,-0.13488 -0.77205,-0.13488 -0.8046,0 -1.23713,0.5209 -0.43253,0.5209 -0.43253,1.48828 0,0.96274 0.43253,1.48829 0.43718,0.52089 1.23713,0.52089 0.44649,0 0.79995,-0.13487 0.35347,-0.13953 0.65578,-0.42788 z" style="font-style:normal;font-variant:normal;font-weight:normal;font-stretch:normal;font-size:9.52499962px;line-height:200%;font-family:'DejaVu Sans Mono';-inkscape-font-specification:'DejaVu Sans Mono';text-align:start;text-anchor:start;stroke-width:0.26458332px" id="path2905"/>
      <path d="m 213.97959,264.98087 h 0.74414 q 0.70229,1.09761 1.04645,2.14871 0.34417,1.05109 0.34417,2.08824 0,1.04645 -0.34417,2.09755 -0.34416,1.0511 -1.04645,2.1487 h -0.74414 q 0.61857,-1.079 0.92088,-2.13475 0.30696,-1.05575 0.30696,-2.1115 0,-1.0604 -0.30696,-2.11615 -0.30231,-1.05575 -0.92088,-2.1208 z" style="font-style:normal;font-variant:normal;font-weight:normal;font-stretch:normal;font-size:9.52499962px;line-height:200%;font-family:'DejaVu Sans Mono';-inkscape-font-specification:'DejaVu Sans Mono';text-align:start;text-anchor:start;stroke-width:0.26458332px" id="path2907"/>
    </g>
    <path style="display:inline;fill:none;fill-rule:evenodd;stroke:#4e8f88;stroke-width:2.76500058;stroke-linecap:butt;stroke-linejoin:miter;stroke-miterlimit:4;stroke-dasharray:none;stroke-opacity:1;marker-end:url(#Arrow1Mend-6-1-0-1-1-6-6)" d="m 19.844372,340.53451 0.1458,45.87011" id="path888-9-7-3-4-6-3-2" inkscape:connector-curvature="0" sodipodi:nodetypes="cc"/>
    <path style="display:inline;opacity:1;vector-effect:none;fill:none;fill-opacity:1;fill-rule:evenodd;stroke:#831bb7;stroke-width:2.76500058;stroke-linecap:butt;stroke-linejoin:miter;stroke-miterlimit:4;stroke-dasharray:none;stroke-dashoffset:0;stroke-opacity:1;marker-end:url(#marker7283)" d="m 240.57077,332.6388 c -82.7494,13.57276 -68.7914,-33.89703 -211.821099,7.71734" id="path888-9-7-3-4-6-9-6-3-5" inkscape:connector-curvature="0" sodipodi:nodetypes="cc"/>
    <g id="g2474-2-0" transform="translate(-592.48616,296.14318)">
      <rect y="-45.837212" x="827.91211" height="85.02948" width="76.351196" id="rect4758-8-9-7-8" style="color:#000000;clip-rule:nonzero;display:inline;overflow:visible;visibility:visible;opacity:1;isolation:auto;mix-blend-mode:normal;color-interpolation:sRGB;color-interpolation-filters:linearRGB;solid-color:#000000;solid-opacity:1;vector-effect:none;fill:#e4c2f6;fill-opacity:1;fill-rule:nonzero;stroke:#831bb7;stroke-width:1;stroke-linecap:butt;stroke-linejoin:miter;stroke-miterlimit:4;stroke-dasharray:none;stroke-dashoffset:0;stroke-opacity:1;marker:none;marker-start:none;marker-mid:none;marker-end:none;color-rendering:auto;image-rendering:auto;shape-rendering:auto;text-rendering:auto;enable-background:accumulate"/>
      <text xml:space="preserve" style="font-style:normal;font-variant:normal;font-weight:normal;font-stretch:normal;font-size:9.52499962px;line-height:125%;font-family:'DejaVu Sans Mono';-inkscape-font-specification:'DejaVu Sans Mono';text-align:start;letter-spacing:0px;word-spacing:0px;writing-mode:lr-tb;text-anchor:start;fill:#000000;fill-opacity:1;stroke:none;stroke-width:0.26458332px;stroke-linecap:butt;stroke-linejoin:miter;stroke-opacity:1" x="831.38641" y="-35.982437" id="text7533"><tspan sodipodi:role="line" id="tspan7529" x="831.38641" y="-35.982437" style="font-style:italic;font-variant:normal;font-weight:normal;font-stretch:normal;font-family:'DejaVu Sans Mono';-inkscape-font-specification:'DejaVu Sans Mono';text-align:start;text-anchor:start;stroke-width:0.26458332px"># myfunc</tspan><tspan sodipodi:role="line" x="831.38641" y="-24.076187" style="font-style:normal;font-variant:normal;font-weight:normal;font-stretch:normal;font-family:'DejaVu Sans Mono';-inkscape-font-specification:'DejaVu Sans Mono';text-align:start;text-anchor:start;stroke-width:0.26458332px" id="tspan7531">...</tspan></text>
    </g>
    <path style="display:inline;fill:none;fill-rule:evenodd;stroke:#ef0685;stroke-width:2.76500058;stroke-linecap:butt;stroke-linejoin:miter;stroke-miterlimit:4;stroke-dasharray:none;stroke-opacity:1;marker-end:url(#Arrow1Mend-6-1-0-1-1-3-0-5-7-3-4)" d="m 331.11607,318.15756 c -39.6767,36.39515 -221.141,-71.37744 -304.669999,16.27385" id="path888-9-7-3-4-6-0-1-4-8-5-1" inkscape:connector-curvature="0" sodipodi:nodetypes="cc"/>
    <g id="g2480-1-5" transform="translate(-581.27595,314.48276)">
      <rect y="-45.837212" x="910.36554" height="50.866005" width="84.817863" id="rect4758-8-4-9-4-1" style="color:#000000;clip-rule:nonzero;display:inline;overflow:visible;visibility:visible;opacity:1;isolation:auto;mix-blend-mode:normal;color-interpolation:sRGB;color-interpolation-filters:linearRGB;solid-color:#000000;solid-opacity:1;vector-effect:none;fill:#fdbbdf;fill-opacity:1;fill-rule:nonzero;stroke:#ef0685;stroke-width:1;stroke-linecap:butt;stroke-linejoin:miter;stroke-miterlimit:4;stroke-dasharray:none;stroke-dashoffset:0;stroke-opacity:1;marker:none;marker-start:none;marker-mid:none;marker-end:none;color-rendering:auto;image-rendering:auto;shape-rendering:auto;text-rendering:auto;enable-background:accumulate"/>
      <text id="text1263-7-9-1" y="-35.982437" x="913.93768" style="font-style:normal;font-variant:normal;font-weight:normal;font-stretch:normal;font-size:9.52499962px;line-height:125%;font-family:'DejaVu Sans Mono';-inkscape-font-specification:'DejaVu Sans Mono';text-align:start;letter-spacing:0px;word-spacing:0px;writing-mode:lr-tb;text-anchor:start;fill:#000000;fill-opacity:1;stroke:none;stroke-width:0.26458332px;stroke-linecap:butt;stroke-linejoin:miter;stroke-opacity:1" xml:space="preserve"><tspan style="font-style:italic;font-variant:normal;font-weight:normal;font-stretch:normal;font-family:'DejaVu Sans Mono';-inkscape-font-specification:'DejaVu Sans Mono';text-align:start;text-anchor:start;stroke-width:0.26458332px" y="-35.982437" x="913.93768" id="tspan1261-6-2-0" sodipodi:role="line"># anotherfunc</tspan><tspan id="tspan1265-5-0-8" style="font-style:normal;font-variant:normal;font-weight:normal;font-stretch:normal;font-family:'DejaVu Sans Mono';-inkscape-font-specification:'DejaVu Sans Mono';text-align:start;text-anchor:start;stroke-width:0.26458332px" y="-24.076187" x="913.93768" sodipodi:role="line">...</tspan></text>
    </g>
    <path style="display:inline;opacity:1;vector-effect:none;fill:none;fill-opacity:1;fill-rule:evenodd;stroke:#831bb7;stroke-width:2.76500058;stroke-linecap:butt;stroke-linejoin:miter;stroke-miterlimit:4;stroke-dasharray:none;stroke-dashoffset:0;stroke-opacity:1;marker-end:url(#marker6526)" d="m 189.56665,250.54141 39.47992,0.5016" id="path888-9-7-3-4-6-9-6-3" inkscape:connector-curvature="0" sodipodi:nodetypes="cc"/>
    <path style="display:inline;fill:none;fill-rule:evenodd;stroke:#ef0685;stroke-width:2.76500058;stroke-linecap:butt;stroke-linejoin:miter;stroke-miterlimit:4;stroke-dasharray:none;stroke-opacity:1;marker-end:url(#Arrow1Mend-6-1-0-1-1-3-0-5-2-12)" d="m 217.38717,269.30248 104.2461,0.002" id="path888-9-7-3-4-6-0-1-4-0-9" inkscape:connector-curvature="0" sodipodi:nodetypes="cc"/>
    <path style="display:inline;opacity:1;vector-effect:none;fill:none;fill-opacity:1;fill-rule:evenodd;stroke:#b35f00;stroke-width:2.76500058;stroke-linecap:butt;stroke-linejoin:miter;stroke-miterlimit:4;stroke-dasharray:none;stroke-dashoffset:0;stroke-opacity:1;marker-end:url(#marker4985)" d="m 19.749372,200.85631 c 1.4967,16.51538 -37.6579,42.31164 10.2396,45.82104" id="path888-9-7-3-4-6-9-6-3-9" inkscape:connector-curvature="0" sodipodi:nodetypes="cc"/>
    <path style="display:inline;fill:none;fill-rule:evenodd;stroke:#4e8f88;stroke-width:2.76500058;stroke-linecap:butt;stroke-linejoin:miter;stroke-miterlimit:4;stroke-dasharray:none;stroke-opacity:1;marker-end:url(#Arrow1Mend-6-1-0-1-1-6-6-9)" d="m 19.568572,159.81924 0.1458,33.03848" id="path888-9-7-3-4-6-3-2-3" inkscape:connector-curvature="0" sodipodi:nodetypes="cc"/>
  </g>
</svg>